<svg width="31" height="31" viewBox="0 0 31 31" fill="none" xmlns="http://www.w3.org/2000/svg">
<g filter="url(#filter0_d_207_6)">
<path d="M26.8375 28.75C23.5389 28.75 20.2799 28.0309 17.0604 26.5927C13.841 25.1545 10.9118 23.116 8.27292 20.4771C5.63403 17.8382 3.59549 14.909 2.15729 11.6896C0.719097 8.47014 0 5.21111 0 1.9125C0 1.4375 0.158333 1.04167 0.475 0.725C0.791667 0.408333 1.1875 0.25 1.6625 0.25H8.075C8.44444 0.25 8.77431 0.375347 9.06458 0.626042C9.35486 0.876736 9.52639 1.17361 9.57917 1.51667L10.6083 7.05833C10.6611 7.48056 10.6479 7.83681 10.5687 8.12708C10.4896 8.41736 10.3444 8.66806 10.1333 8.87917L6.29375 12.7583C6.82153 13.7347 7.44826 14.6781 8.17396 15.5885C8.89965 16.499 9.69792 17.3764 10.5687 18.2208C11.3868 19.0389 12.2444 19.7976 13.1417 20.4969C14.0389 21.1962 14.9889 21.8361 15.9917 22.4167L19.7125 18.6958C19.95 18.4583 20.2601 18.2802 20.6427 18.1615C21.0253 18.0427 21.4014 18.0097 21.7708 18.0625L27.2333 19.1708C27.6028 19.2764 27.9062 19.4677 28.1437 19.7448C28.3813 20.0219 28.5 20.3319 28.5 20.675V27.0875C28.5 27.5625 28.3417 27.9583 28.025 28.275C27.7083 28.5917 27.3125 28.75 26.8375 28.75ZM4.78958 9.75L7.40208 7.1375L6.72917 3.41667H3.20625C3.33819 4.49861 3.52292 5.56736 3.76042 6.62292C3.99792 7.67847 4.34097 8.72083 4.78958 9.75ZM18.9604 23.9208C19.9896 24.3694 21.0385 24.7257 22.1073 24.9896C23.176 25.2535 24.2514 25.425 25.3333 25.5042V22.0208L21.6125 21.2687L18.9604 23.9208Z" fill="white"/>
</g>
<defs>
<filter id="filter0_d_207_6" x="0" y="0.25" width="30.5" height="30.5" filterUnits="userSpaceOnUse" color-interpolation-filters="sRGB">
<feFlood flood-opacity="0" result="BackgroundImageFix"/>
<feColorMatrix in="SourceAlpha" type="matrix" values="0 0 0 0 0 0 0 0 0 0 0 0 0 0 0 0 0 0 127 0" result="hardAlpha"/>
<feOffset dx="2" dy="2"/>
<feComposite in2="hardAlpha" operator="out"/>
<feColorMatrix type="matrix" values="0 0 0 0 0 0 0 0 0 0 0 0 0 0 0 0 0 0 0.25 0"/>
<feBlend mode="normal" in2="BackgroundImageFix" result="effect1_dropShadow_207_6"/>
<feBlend mode="normal" in="SourceGraphic" in2="effect1_dropShadow_207_6" result="shape"/>
</filter>
</defs>
</svg>
