<svg width="29" height="29" viewBox="0 0 29 29" fill="none" xmlns="http://www.w3.org/2000/svg">
<path d="M27.0875 28.75C23.7889 28.75 20.5299 28.0309 17.3104 26.5927C14.091 25.1545 11.1618 23.116 8.52292 20.4771C5.88403 17.8382 3.84549 14.909 2.40729 11.6896C0.969097 8.47014 0.25 5.21111 0.25 1.9125C0.25 1.4375 0.408333 1.04167 0.725 0.725C1.04167 0.408333 1.4375 0.25 1.9125 0.25H8.325C8.69444 0.25 9.02431 0.375347 9.31458 0.626042C9.60486 0.876736 9.77639 1.17361 9.82917 1.51667L10.8583 7.05833C10.9111 7.48056 10.8979 7.83681 10.8187 8.12708C10.7396 8.41736 10.5944 8.66806 10.3833 8.87917L6.54375 12.7583C7.07153 13.7347 7.69826 14.6781 8.42396 15.5885C9.14965 16.499 9.94792 17.3764 10.8187 18.2208C11.6368 19.0389 12.4944 19.7976 13.3917 20.4969C14.2889 21.1962 15.2389 21.8361 16.2417 22.4167L19.9625 18.6958C20.2 18.4583 20.5101 18.2802 20.8927 18.1615C21.2753 18.0427 21.6514 18.0097 22.0208 18.0625L27.4833 19.1708C27.8528 19.2764 28.1562 19.4677 28.3937 19.7448C28.6313 20.0219 28.75 20.3319 28.75 20.675V27.0875C28.75 27.5625 28.5917 27.9583 28.275 28.275C27.9583 28.5917 27.5625 28.75 27.0875 28.75ZM5.03958 9.75L7.65208 7.1375L6.97917 3.41667H3.45625C3.58819 4.49861 3.77292 5.56736 4.01042 6.62292C4.24792 7.67847 4.59097 8.72083 5.03958 9.75ZM19.2104 23.9208C20.2396 24.3694 21.2885 24.7257 22.3573 24.9896C23.426 25.2535 24.5014 25.425 25.5833 25.5042V22.0208L21.8625 21.2687L19.2104 23.9208Z" fill="#1C445F"/>
</svg>
