<svg width="189" height="39" viewBox="0 0 189 39" fill="none" xmlns="http://www.w3.org/2000/svg">
<path fill-rule="evenodd" clip-rule="evenodd" d="M139.333 17.3944H131.526V37.2635H125.839V17.3944H118.177V12.6353H139.333V17.3944ZM97.8553 37.2635H111.777C116.345 37.2635 119.034 33.7891 118.938 29.5057C118.844 25.1752 116.511 22.3436 111.919 22.3436H105.327C101.758 22.3436 101.543 17.3944 105.708 17.3944H116.677V12.6353H105.994C100.829 12.6353 97.4988 15.1575 97.4728 19.8455C97.4498 24.5093 100.805 27.4361 105.994 27.4361H111.562C115.084 27.4361 115.13 32.148 111.681 32.148H97.8553V37.2635ZM164.984 37.2635V12.6343H170.838L182.545 27.8876V12.6343H188.161V37.2635H182.33L170.481 22.7481V37.2635H164.984ZM89.9783 37.2635V12.6343H95.5233V37.2635H89.9783ZM4.93082 37.2635C2.83617 37.2635 0.837646 35.8126 0.837646 33.2184V18.2034L16.4003 2.59264L28.1562 14.2053V32.148C28.1562 32.7187 27.5614 33.2184 27.0137 33.2184H5.85899C5.43045 33.2184 4.93082 32.909 4.93082 32.148V19.7734L16.4003 8.11262L24.1581 15.9655L24.1341 24.1749H9.80899C8.61948 24.1749 8.66654 22.7471 9.76193 22.7471H13.0461V20.5343H16.4013C18.1625 20.5343 18.0194 21.6998 18.9475 21.6768L21.66 21.6537V17.3944L16.4013 12.1828L7.71534 20.9869V30.3868H25.1584V27.4361C25.1584 27.6033 24.5396 27.9837 24.04 27.9837H18.9465C18.0184 27.9837 18.3518 29.0781 16.4003 29.0781H13.0451V26.9845H9.80899C8.83275 26.9845 8.73863 25.4375 9.83202 25.4375H23.3721C24.3714 25.4375 25.2045 24.5814 25.2045 23.5812L25.1564 15.4899L16.3993 6.51861L3.83644 19.3929V33.2184C3.83644 33.6229 4.38313 34.2176 4.93082 34.2176H28.1562C28.7279 34.2176 29.1564 33.695 29.1564 33.2184V15.4669L32.2494 18.3936V33.2184C32.2494 36.0019 30.369 37.2635 28.1562 37.2635H4.93082ZM28.1562 11.4929V7.70911C28.1562 6.90008 29.1564 6.90009 29.1564 7.68508V11.5159C32.2494 11.4929 34.4381 7.32763 32.2494 4.92459L28.6088 0.950562L25.1584 4.87653C23.1589 7.13739 25.1584 11.4929 28.1562 11.4929ZM80.2701 37.2635L72.4652 27.4361H70.5618V37.2635H59.1874L56.8795 32.148H45.6463L43.3614 37.2635H37.3168L48.3337 12.6343H54.2121C57.7806 20.5584 61.3511 28.5064 64.9197 36.4544V12.6343H79.9116C86.7893 12.6343 89.2394 23.1526 82.5059 26.579C81.5777 27.0556 80.4593 27.435 79.6263 27.435L87.5272 37.2625H80.2701V37.2635ZM78.8182 22.3436C82.1264 22.4147 82.3167 17.3944 78.9854 17.3944H70.5618V22.3436H78.8182ZM47.9542 26.9845H54.5696L51.2384 19.6072L47.9542 26.9845ZM150.279 38.0485C157.632 38.0485 163.627 32.171 163.627 24.9609C163.627 17.7748 157.632 11.8734 150.279 11.8734C142.925 11.8734 136.928 17.7758 136.928 24.9609C136.928 32.171 142.925 38.0485 150.279 38.0485ZM150.279 32.4093C146.089 32.4093 142.687 29.0531 142.687 24.9609C142.687 20.8687 146.089 17.5365 150.279 17.5365C154.466 17.5365 157.868 20.8677 157.868 24.9609C157.868 29.0541 154.466 32.4093 150.279 32.4093Z" fill="#CA6B31"/>
</svg>
