<svg width="161" height="33" viewBox="0 0 161 33" fill="none" xmlns="http://www.w3.org/2000/svg">
<path d="M23.2478 20.1246H8.6957V23.2315H19.6629C20.4861 23.2315 18.2023 31.0918 13.449 31.0918H0.994779V17.3629C0.994779 16.0617 3.78304 12.6096 7.04929 12.2909C7.36795 12.2909 20.7782 12.2909 20.6188 12.2909C19.955 12.4502 21.92 11.9722 22.7432 10.9897C23.2212 10.3258 23.0619 9.68852 23.4071 9.18397H0.835449C0.994779 8.04211 1.65865 1.66895 7.71317 1.66895H31.108V26.2057C29.8068 28.8346 27.8418 31.1183 23.593 30.959" fill="#D92231"/>
<path d="M136.929 16.5132C136.929 19.9388 137.752 22.5677 139.372 24.3735C140.992 26.1792 142.984 27.0024 145.427 27.0024C147.87 27.0024 149.835 26.1792 151.481 24.3735C153.128 22.5677 153.765 19.9653 153.765 16.5132C153.765 13.0611 152.942 10.4587 151.481 8.65297C150.021 7.00656 147.87 6.02403 145.427 6.02403C142.984 6.02403 140.859 6.84723 139.372 8.65297C137.752 10.2994 136.929 12.9017 136.929 16.5132ZM130.715 16.6725C130.715 13.5656 131.193 10.9367 132.016 8.8123C132.68 7.35178 133.663 5.86471 134.805 4.72284C135.946 3.58098 137.248 2.59845 138.735 1.93458C140.7 1.11138 142.824 0.792725 145.267 0.792725C149.675 0.792725 153.287 2.09391 156.075 4.88218C158.704 7.67044 160.165 11.6006 160.165 16.4867C160.165 21.3993 158.863 25.1436 156.234 27.9318C153.446 30.7201 149.861 32.1806 145.427 32.1806C140.859 32.1806 137.248 30.8794 134.619 28.0911C132.016 25.356 130.715 21.4259 130.715 16.6725ZM104.373 31.5698V1.29727H110.587V14.7075L123.014 1.29727H131.193L119.748 13.0876L131.857 31.5698H123.997L115.499 17.3364L110.587 22.4084V31.5698H104.373ZM74.1267 21.7445L80.0219 21.0807C80.3406 23.0457 81.1638 24.5062 82.1463 25.4888C83.2882 26.4713 84.7752 26.9493 86.5544 26.9493C88.5195 26.9493 89.98 26.4713 90.9625 25.6481C91.9451 24.8249 92.423 23.8424 92.423 22.7005C92.423 22.0366 92.2637 21.3993 91.7592 20.8948C91.2546 20.3902 90.6173 19.9122 89.6348 19.5936C88.9709 19.2749 87.3511 18.9297 84.7221 18.2924C81.4559 17.4692 79.1722 16.4867 77.8444 15.3448C76.0387 13.6984 75.0561 11.574 75.0561 9.29029C75.0561 7.82977 75.5341 6.34269 76.3573 4.88218C77.1805 3.58099 78.4817 2.59845 80.1281 1.77525C81.7745 1.11138 83.7396 0.792725 86.0233 0.792725C89.7941 0.792725 92.7417 1.61592 94.6802 3.23577C96.6187 4.85562 97.6278 7.1659 97.7871 9.95416L91.7326 10.2728C91.414 8.62641 90.9094 7.64388 90.0862 6.84724C89.263 6.18336 87.9618 5.8647 86.1561 5.8647C84.3504 5.8647 83.0492 6.18337 81.9073 7.00657C81.2434 7.48455 80.9248 8.14842 80.9248 8.8123C80.9248 9.47617 81.2434 10.1135 81.9073 10.618C82.7305 11.2819 84.5362 11.9192 87.4573 12.5831C90.4049 13.247 92.6886 14.0436 93.9898 14.7075C95.4503 15.5307 96.6187 16.5132 97.4154 17.8144C98.2386 19.1156 98.5572 20.762 98.5572 22.7271C98.5572 24.5328 98.0792 26.1526 97.0967 27.6397C96.1142 29.1002 94.813 30.2687 93.0072 31.0653C91.2015 31.8885 89.0771 32.2072 86.4747 32.2072C82.704 32.2072 79.7564 31.384 77.632 29.5782C75.7466 27.799 74.6047 25.1701 74.1267 21.7445ZM62.4957 19.6201L58.2469 8.33431L54.1574 19.6201H62.4957ZM73.7815 31.5698H67.0631L64.4342 24.6921H52.3252L49.8821 31.5698H43.3496L55.14 1.29727H61.6725L73.7815 31.5698Z" fill="#D92231"/>
</svg>
