<svg width="197" height="31" viewBox="0 0 197 31" fill="none" xmlns="http://www.w3.org/2000/svg">
<path d="M25.6176 0L24.8847 2.66755H20.9295L21.6677 0H25.6176ZM24.1141 5.56007L20.6492 18.5443H16.6994L20.1589 5.56007H24.1141ZM107.272 18.5443L112.24 0H122.974C125.399 0 127.112 0.257113 128.115 0.776696C129.139 1.29628 129.656 2.21225 129.656 3.52995C129.656 4.23166 129.516 5.07799 129.236 6.05823C128.535 8.74721 127.581 10.4988 126.369 11.313C125.156 12.1272 122.893 12.5396 119.585 12.5396L118.571 12.5664H113.361L111.755 18.5443H107.272ZM114.164 9.50783H119.197C121.207 9.50783 122.511 9.33107 123.114 8.97754C123.745 8.60794 124.246 7.73482 124.618 6.36355C124.825 5.71341 124.954 5.04081 125 4.36021C125 3.76564 124.741 3.38532 124.23 3.21927C123.739 3.03715 122.791 2.94073 121.395 2.94073H115.909L114.164 9.50783ZM133.013 9.315H129.025C129.467 7.71875 130.206 6.67423 131.229 6.17607C132.275 5.65649 134.215 5.39402 137.033 5.39402C139.388 5.39402 141.042 5.60828 141.996 6.03145C142.95 6.43854 143.429 7.18846 143.429 8.28119C143.429 8.76328 143.338 9.35785 143.149 10.0649L140.875 18.5443H136.925L137.588 16.7659C136.968 17.4529 136.187 17.9772 135.314 18.2925C134.522 18.5711 133.369 18.7103 131.854 18.7103C130.012 18.7103 128.686 18.5175 127.867 18.1265C127.075 17.7194 126.676 17.0445 126.676 16.0964C126.676 15.6893 126.746 15.234 126.886 14.7358C127.28 13.236 128.012 12.1754 129.085 11.5647C130.184 10.9327 131.828 10.6166 134.021 10.6166C135.605 10.6166 136.715 10.7238 137.345 10.922C137.633 11.0042 137.896 11.1565 138.109 11.3651C138.323 11.5737 138.481 11.8319 138.569 12.1165L139.199 10.0006C139.325 9.60499 139.396 9.19407 139.409 8.77935C139.409 8.25976 139.199 7.90623 138.779 7.71875C138.359 7.53663 137.636 7.44021 136.613 7.44021C135.33 7.44021 134.473 7.5527 134.026 7.77232C133.579 7.99194 133.245 8.51688 133.013 9.315ZM134.931 12.7057C133.557 12.7057 132.598 12.8235 132.065 13.0646C131.531 13.3056 131.17 13.7877 130.981 14.5108C130.894 14.7717 130.849 15.0447 130.847 15.3197C130.847 15.7803 131.068 16.0964 131.51 16.2624C131.951 16.4124 132.765 16.4874 133.956 16.4874C135.33 16.4874 136.3 16.3588 136.86 16.0964C137.442 15.8178 137.841 15.3036 138.051 14.5376C138.095 14.4416 138.119 14.3377 138.121 14.2323V13.9537C138.121 13.4931 137.89 13.1663 137.421 12.9789C136.952 12.7967 136.122 12.7057 134.931 12.7057ZM183.246 14.3983H187.163L187.093 14.6501L187.056 14.7894C186.915 15.448 186.625 16.0661 186.208 16.5962C185.79 17.1263 185.256 17.5545 184.647 17.8479C183.434 18.4211 181.521 18.7103 178.913 18.7103C176.418 18.7103 174.673 18.48 173.665 18.014C172.684 17.5533 172.199 16.6588 172.199 15.3464C172.199 14.5858 172.388 13.4931 172.76 12.0629C173.46 9.41142 174.43 7.64376 175.664 6.75458C176.92 5.84397 179.032 5.39402 181.996 5.39402C184.394 5.39402 186.064 5.61364 186.996 6.06359C187.929 6.50818 188.397 7.35987 188.397 8.62401C188.397 9.34714 188.23 10.3274 187.907 11.5701L187.627 12.6253H176.575L176.424 13.1235C176.332 13.477 176.262 13.7716 176.214 14.018C176.166 14.2561 176.143 14.4984 176.144 14.7412C176.144 15.3732 176.375 15.8071 176.844 16.0482C177.335 16.2731 178.148 16.3803 179.291 16.3803C180.713 16.3803 181.656 16.2624 182.12 16.016C182.615 15.7696 182.987 15.234 183.246 14.3983ZM177.124 10.6756H184.259L184.394 10.172C184.512 9.65246 184.571 9.27215 184.571 9.0311C184.571 8.49545 184.345 8.14192 183.903 7.97587C183.483 7.80981 182.669 7.72411 181.457 7.72411C179.943 7.72411 178.93 7.89552 178.418 8.22762C177.933 8.56509 177.496 9.37928 177.124 10.6756ZM74.6811 5.56007H78.6309L77.8981 7.36522C78.6686 6.62602 79.4231 6.10644 80.1667 5.81183C80.9157 5.51187 81.8479 5.36724 82.9634 5.36724C84.1543 5.36724 85.0272 5.55472 85.5877 5.92432C86.1481 6.29392 86.4283 6.90992 86.4283 7.76161C86.4283 8.29726 86.3205 8.92933 86.1103 9.65246L85.8679 10.6006H82.1605L82.3706 9.90422C82.4705 9.56042 82.5301 9.20635 82.5485 8.84898C82.5485 8.17941 81.9988 7.84731 80.9049 7.84731C79.8326 7.84731 79.0297 8.07228 78.4962 8.51688C77.9573 8.96147 77.5263 9.75959 77.2029 10.9059L75.1714 18.5443H71.2216L74.6811 5.56007ZM66.7759 14.3983H70.6935L70.6234 14.6501L70.5911 14.7894C70.4499 15.4484 70.159 16.0666 69.7406 16.5967C69.3221 17.1268 68.7873 17.5548 68.177 17.8479C66.9645 18.4211 65.057 18.7103 62.4435 18.7103C59.9485 18.7103 58.1972 18.48 57.2003 18.014C56.2196 17.5533 55.7292 16.6588 55.7292 15.3464C55.7292 14.5858 55.9178 13.4931 56.2897 12.0629C56.9902 9.41142 57.9601 7.64376 59.1941 6.75458C60.4497 5.84397 62.562 5.39402 65.5204 5.39402C67.9237 5.39402 69.5888 5.61364 70.521 6.06359C71.4533 6.50818 71.9221 7.35987 71.9221 8.62401C71.9221 9.34714 71.7604 10.3274 71.4317 11.5701L71.1515 12.6253H60.1048L59.9593 13.1235C59.8756 13.4183 59.8054 13.7168 59.7492 14.018C59.7016 14.2561 59.6781 14.4984 59.6791 14.7412C59.6791 15.3732 59.9108 15.8071 60.3796 16.0482C60.87 16.2731 61.6837 16.3803 62.8261 16.3803C64.2487 16.3803 65.1917 16.2624 65.6605 16.016C66.1455 15.7696 66.5227 15.234 66.7759 14.3983ZM60.6544 10.6756H67.789L67.9291 10.172C68.0477 9.65246 68.1069 9.27215 68.1069 9.0311C68.1069 8.49545 67.886 8.14192 67.4441 7.97587C67.0238 7.80981 66.2101 7.72411 64.9923 7.72411C63.4781 7.72411 62.465 7.89552 61.9531 8.22762C61.4627 8.56509 61.0316 9.37928 60.6544 10.6756ZM47.2314 0L45.1675 7.70268C45.7269 6.90225 46.502 6.27476 47.4038 5.89218C48.2444 5.56007 49.4191 5.39402 50.9334 5.39402C52.5931 5.39402 53.7786 5.60828 54.5006 6.03145C55.2497 6.45997 55.6215 7.16168 55.6215 8.14728C55.6215 8.62936 55.5352 9.1543 55.3736 9.73281L53.0349 18.5443H49.0797L51.2136 10.5684L51.3159 10.1774C51.4103 9.87921 51.4594 9.56867 51.4614 9.25608C51.4614 8.36689 50.6585 7.9223 49.0473 7.9223C47.5547 7.9223 46.4608 8.15263 45.7603 8.61865C45.0597 9.07931 44.5478 9.93635 44.2191 11.1791L42.263 18.5443H38.3132L43.2761 0H47.2314ZM38.8682 9.11681H35.0584L35.0962 8.87041C35.1139 8.7497 35.1247 8.62809 35.1285 8.50616C35.1285 8.09907 34.9399 7.8366 34.5681 7.72411C34.1963 7.61698 33.4041 7.56341 32.1917 7.56341C30.7906 7.56341 29.8584 7.65983 29.395 7.84195C29.1805 7.92831 28.9893 8.06341 28.8368 8.23642C28.6843 8.40943 28.5746 8.61555 28.5166 8.83827C28.4232 9.18509 28.3655 9.54044 28.3442 9.89886C28.3442 10.231 28.5921 10.4559 29.0824 10.5684C29.5728 10.6595 30.6452 10.7023 32.2995 10.7023C34.5411 10.7023 36.0877 10.8684 36.9499 11.2059C37.8336 11.538 38.2755 12.1593 38.2755 13.0646C38.2721 13.2699 38.2486 13.4744 38.2054 13.6752C38.1713 13.958 38.1136 14.2375 38.033 14.5108C37.6073 16.0856 36.772 17.1837 35.5165 17.7944C34.2555 18.405 32.1809 18.7103 29.2926 18.7103C26.8893 18.7103 25.1972 18.5229 24.2219 18.1533C23.2627 17.7622 22.7885 17.0873 22.7885 16.1231C22.7885 15.9357 22.7993 15.7321 22.8209 15.5125C22.842 15.2778 22.889 15.0461 22.961 14.8215L23.0687 14.4626H27.1264L27.0186 14.8804C26.9486 15.0747 26.9122 15.2794 26.9108 15.4857C26.9108 15.8767 27.1318 16.1446 27.5736 16.2946C28.0424 16.4445 28.8454 16.5195 29.9877 16.5195C31.4103 16.5195 32.3857 16.407 32.9245 16.1874C33.4634 15.9624 33.8244 15.5125 34.0077 14.8269C34.0707 14.5997 34.1069 14.366 34.1154 14.1305C34.1154 13.777 33.9646 13.5359 33.6628 13.4074C33.3772 13.252 32.8653 13.1771 32.1216 13.1771C29.0717 13.1771 27.0024 13.011 25.9355 12.6789C24.8578 12.3468 24.3243 11.6879 24.3243 10.7023C24.3243 10.3327 24.3943 9.87743 24.5344 9.34178C24.9548 7.78303 25.7361 6.73851 26.8785 6.1975C28.0478 5.65649 30.0847 5.39402 33 5.39402C35.3117 5.39402 36.896 5.56007 37.7581 5.89218C38.1588 6.00717 38.5079 6.25456 38.748 6.59348C38.988 6.93241 39.1045 7.34258 39.0784 7.75625C39.0784 8.12585 39.0083 8.58115 38.8682 9.11681ZM8.64337 2.94609L7.30699 7.97587H17.6963L16.8934 10.9273H6.50947L4.47795 18.5443H0L4.96832 0H20.3906L19.5823 2.94609H8.64337ZM159.73 5.56007L151.755 19.3478C150.634 21.2761 149.524 22.5831 148.43 23.2687C147.358 23.9544 145.843 24.2972 143.887 24.2972H143.365C143.211 24.2983 143.058 24.2894 142.907 24.2704C142.78 24.2518 142.652 24.2411 142.524 24.2383L143.149 21.9618L143.92 21.9885C144.77 22.0149 145.602 21.7375 146.264 21.2065C146.894 20.6869 147.498 19.7977 148.085 18.5389H146.091L144.2 5.56007H148.398L148.958 11.0612L149.276 13.8145L149.411 15.2018L149.481 16.5624L150.321 15.2018L151.06 13.8145L152.558 11.0612L155.634 5.56007H159.73Z" fill="black"/>
<path d="M165.748 0L162.923 10.45H163.934L169.661 5.47279H174.203L166.905 11.4939L171.9 18.2532H167.045L163.272 12.5906H162.331L160.791 18.2532H156.846L161.803 0H165.748ZM196.14 0L191.183 18.2532H187.238L192.195 0H196.14ZM94.8201 8.24082C96.8437 7.91392 98.7758 7.66085 99.2656 7.5554C100.729 7.2496 101.144 5.79968 101.316 4.80846C101.402 4.31285 100.961 3.75397 100.536 3.60107C100.111 3.45344 99.2494 3.37963 97.9578 3.37963C96.2786 3.37963 95.1484 3.51144 94.5511 3.77506C94.2981 3.89136 94.073 4.05849 93.8904 4.2656C93.7077 4.47271 93.5716 4.71515 93.4908 4.97718C93.0549 6.17929 93.028 6.66436 93.6146 7.21796L94.4542 7.94556L94.8201 8.24082ZM100.057 15.0581L93.2163 9.7171C91.5802 10.0018 90.6922 10.2233 90.224 10.5923C89.7773 10.9561 89.2122 11.8946 88.8516 13.1864C88.7545 13.5082 88.6701 13.8336 88.5987 14.1618C88.5154 14.4877 88.472 14.8222 88.4695 15.1582C88.4695 15.8753 88.8301 16.334 89.5513 16.5344C90.2724 16.7189 91.7363 16.8085 93.9429 16.8085C95.9611 16.8085 97.3712 16.6925 98.1784 16.4605C98.9626 16.2417 99.6334 15.7408 100.057 15.0581ZM96.0849 9.24785L101.02 13.1653L101.338 12.1424L101.623 10.9245H103.98L103.883 11.3726L103.69 12.1951C103.568 12.6393 103.43 13.079 103.275 13.5132C103.189 13.7769 103.022 14.1301 102.769 14.5625L105.853 16.9562L104.195 18.2532L101.591 16.2338C100.821 17.0985 99.9222 17.6785 98.8835 17.9843C97.8663 18.2848 96.2087 18.4324 93.916 18.4324C90.9021 18.4324 88.8355 18.2321 87.7107 17.8314C86.5858 17.4307 86.0261 16.6503 86.0261 15.4851C86.0261 15.1688 86.0477 14.863 86.0907 14.5625C86.1553 14.2619 86.2629 13.8401 86.4082 13.2918C86.8549 11.7101 87.3931 10.6292 88.0336 10.0493C88.6686 9.46929 89.7612 9.05804 91.3111 8.83133L91.9731 8.69952C91.1228 8.01937 90.703 7.38141 90.703 6.78035C90.7159 6.45035 90.7682 6.12298 90.8591 5.80495C91.2842 4.22849 92.0054 3.16346 93.0226 2.61513C94.0613 2.05098 95.8427 1.76627 98.3722 1.76627C100.261 1.76627 101.612 1.9508 102.414 2.3146C103.221 2.66258 103.625 3.30054 103.625 4.21268C103.625 4.5712 103.55 5.03518 103.399 5.59405C102.968 6.84362 102.522 8.36208 99.906 8.69952C98.7543 8.84187 97.3227 9.05277 96.0849 9.24785Z" fill="black"/>
</svg>
