<svg width="131" height="123" viewBox="0 0 131 123" fill="none" xmlns="http://www.w3.org/2000/svg">
<path fill-rule="evenodd" clip-rule="evenodd" d="M50.3392 8.24116C20.922 16.4811 3.19106 46.5859 11.7698 76.5264C20.177 105.87 51.0693 123 80.8322 114.662C110.595 106.325 127.809 75.7194 119.402 46.3761C110.822 16.4344 79.7565 6.67572e-06 50.3386 8.24057L50.3392 8.24116ZM79.4832 109.959C52.3166 117.568 24.1132 101.995 16.4416 75.2186C8.57259 47.7578 24.9277 20.3501 51.6625 12.8616C78.484 5.34709 106.774 20.2484 114.643 47.7099C122.315 74.4867 106.652 102.348 79.4832 109.959Z" fill="#EC2426"/>
<path fill-rule="evenodd" clip-rule="evenodd" d="M21.2017 75.4456L33.0554 72.1253L28.4046 85.9039L33.0764 84.5949L37.9006 70.7684L49.667 67.4717L39.2681 99.6801C29.982 93.04 24.8959 86.0546 21.2017 75.4456ZM50.1902 17.955L34.0558 68.3118L20.2982 72.1655C14.2889 47.6034 28.4429 26.5415 50.1902 17.955ZM54.8793 16.7342C66.5698 14.4757 76.5986 14.9013 87.9488 21.2399C98.6323 27.2113 106.01 36.3269 109.667 47.1316L55.851 62.2068L65.3464 31.0833L60.4145 32.465L50.9197 63.5885L39.066 66.9089L54.8793 16.7342ZM54.7956 66.0776L43.1787 101.862C54.0733 107.59 65.7787 109.301 78.1509 105.835C102.55 99.0008 116.846 74.8491 110.601 50.4449L54.7956 66.0776ZM63.3355 76.9207C62.7513 78.4709 61.5632 79.5434 59.9194 80.0034C57.1509 80.7791 55.5102 79.9455 54.9708 78.0624C54.4805 76.352 55.1191 72.3842 56.2618 69.8461C56.9566 68.3574 58.0586 67.3097 59.9619 66.7764C62.6437 66.0256 63.9382 66.9556 64.4286 68.6672C64.6737 69.5233 64.8136 73.2728 63.3355 76.9207ZM74.8137 73.7056C74.2295 75.2558 73.1275 76.3035 71.4837 76.7641C68.7152 77.5397 67.0745 76.7061 66.5351 74.8231C66.0448 73.1126 66.684 69.1443 67.8255 66.6067C68.5215 65.118 69.5356 64.094 71.4395 63.5613C74.1219 62.8099 75.5031 63.7156 75.9935 65.4272C76.2386 66.2833 76.2924 70.0577 74.8137 73.7056ZM78.5682 73.8558L78.1359 62.8867L81.1645 62.0383L81.311 68.0972L85.0571 60.9481L88.5181 59.9785L81.9424 72.911L78.5682 73.8558ZM95.3167 66.5766L94.7056 69.3364L87.2642 71.4205L90.3795 59.4576L97.6463 57.422L97.049 59.9004L93.4147 60.9185L92.8424 62.8341L96.39 61.8402L95.6677 64.538L92.1201 65.5313L91.683 67.5947L95.3167 66.5766ZM107.697 61.6304C107.844 62.1435 107.88 62.5952 107.581 63.5111L106.872 65.9274L103.411 66.897L104.458 62.7229L102.381 63.3041L101.335 67.4782L97.7008 68.4963L100.729 56.5576L104.536 55.491C107.132 54.7638 108.565 54.5474 109.129 56.5156C109.595 58.1403 108.788 59.5687 107.303 60.9085C107.575 61.2017 107.624 61.3743 107.697 61.6304ZM103.362 58.2125L104.401 57.9216C105.353 57.6549 105.785 57.5337 105.981 58.2178C106.25 59.159 105.497 59.4629 104.371 59.778L102.9 60.1901L103.362 58.2125ZM60.0534 69.7083C60.5724 69.5629 61.1895 69.7592 61.3372 70.2729C61.3862 70.4444 61.1243 76.7085 59.4805 77.169C58.8748 77.3387 58.3199 77.0319 58.1232 76.3472C58.0754 76.1764 58.1501 70.2416 60.0534 69.7083ZM71.6177 66.4684C72.1373 66.3235 72.6677 66.5441 72.8148 67.0578C72.8638 67.2293 72.6892 73.4691 71.0454 73.9291C70.4391 74.0994 69.8842 73.7931 69.6881 73.1085C69.6397 72.937 69.715 67.0017 71.6183 66.469L71.6177 66.4684Z" fill="#EC2426"/>
</svg>
