<svg width="173" height="33" viewBox="0 0 173 33" fill="none" xmlns="http://www.w3.org/2000/svg">
<path fill-rule="evenodd" clip-rule="evenodd" d="M14.2606 11.8573L22.8058 23.5313H2.65527L14.2606 11.8573Z" fill="#34347E"/>
<path fill-rule="evenodd" clip-rule="evenodd" d="M2.19057 32.7001V28.2554H0.338379V26.7003H6.08125V28.2741H4.19964V32.7001H2.19057ZM11.8839 32.7001V26.7003H13.9538V28.83H15.7756V26.7003H17.8151V32.7001H15.756V30.4234H13.943V32.7001H11.8839ZM24.0727 32.7001V26.7003H29.5979V28.2652H26.0828V28.8585H29.0439V30.3733H26.0935V31.1352H29.5989V32.7001H24.0727ZM45.343 32.7001L43.5506 26.7003H45.6401L46.4618 29.8586L47.1844 26.7003H48.9866L49.719 29.8292L50.5515 26.7003H52.64L50.828 32.7001H48.7581L48.0943 29.6017L47.4109 32.7001H45.343ZM60.1066 30.7303C60.3145 31.0979 60.7106 31.3254 61.1558 31.3254C61.6009 31.3254 61.997 31.1068 62.2059 30.741C62.3904 30.4216 62.4876 30.0593 62.4876 29.6904C62.4876 29.3216 62.3904 28.9592 62.2059 28.6398C62.0078 28.2741 61.6019 28.0368 61.1558 28.0368C60.7096 28.0368 60.3145 28.2741 60.1066 28.6398C59.7497 29.3056 59.7399 30.0674 60.1066 30.7303ZM59.7399 32.5432C59.2438 32.3474 58.8093 32.022 58.4819 31.6009C58.0298 31.0509 57.7835 30.3605 57.7853 29.6485C57.7871 28.9364 58.0369 28.2473 58.4917 27.6995C58.8162 27.2941 59.2435 26.9832 59.7291 26.7994C60.1856 26.6179 60.6735 26.5289 61.1647 26.5374C61.6558 26.546 62.1404 26.6521 62.5902 26.8494C63.0453 27.0346 63.4494 27.3261 63.7688 27.6995C64.7288 28.8388 64.7493 30.4537 63.8188 31.6009C63.4973 32.0123 63.0742 32.333 62.5912 32.5315C62.141 32.7245 61.6566 32.8251 61.1668 32.8271C60.6769 32.8291 60.1917 32.7326 59.7399 32.5432ZM72.4444 29.2242H73.7014C73.7855 29.2265 73.8692 29.2118 73.9475 29.1812C74.0258 29.1505 74.0972 29.1045 74.1574 29.0457C74.2127 28.9884 74.2553 28.9201 74.2827 28.8453C74.31 28.7705 74.3215 28.6908 74.3162 28.6114C74.3111 28.5382 74.2909 28.4668 74.2568 28.4018C74.2227 28.3369 74.1755 28.2797 74.1182 28.2339C74.0016 28.1367 73.8541 28.0845 73.7024 28.0868H72.4454L72.4444 29.2242ZM72.4248 32.7001H70.4246V26.7003H74.326C74.7722 26.7003 75.1781 26.8092 75.5536 27.0161C75.9792 27.2533 76.2665 27.6407 76.3263 28.0966C76.3709 28.3551 76.3509 28.6206 76.2681 28.8695C76.1853 29.1184 76.0423 29.343 75.8517 29.5232C75.6673 29.7006 75.4377 29.8238 75.1879 29.8792C75.6429 29.9772 75.99 30.3047 76.089 30.7293C76.1292 30.8783 76.1488 31.0166 76.1586 31.1656C76.1978 31.5911 76.2282 31.9677 76.2773 32.3834C76.2871 32.5119 76.3371 32.6109 76.4253 32.6991H74.4153C74.3297 32.579 74.2755 32.4395 74.2574 32.2932C74.2076 31.9214 74.168 31.5484 74.1388 31.1744C74.1343 31.096 74.1135 31.0194 74.0777 30.9495C74.0419 30.8796 73.9919 30.8179 73.9309 30.7685C73.8095 30.665 73.655 30.6087 73.4955 30.6096L72.4268 30.5998V32.7001H72.4248ZM82.4055 32.7001V26.7003H84.4547V31.0381H87.3473V32.7001H82.4055ZM95.1188 31.1362H95.8826C96.1381 31.1424 96.3899 31.0747 96.6077 30.9411C96.8255 30.8075 97 30.6137 97.1102 30.3832C97.2223 30.1355 97.271 29.8639 97.252 29.5928C97.233 29.3217 97.1469 29.0596 97.0014 28.83C96.7739 28.4721 96.368 28.2652 95.9209 28.2652H95.1188V31.1362ZM93.1195 32.7001V26.7003H96.3866C97.0798 26.7003 97.7231 26.9072 98.2476 27.3338C98.6653 27.6593 98.9526 28.0672 99.1193 28.5417C99.387 29.285 99.387 30.0262 99.1399 30.7783C98.9347 31.3812 98.5246 31.8929 97.9809 32.2246C97.4804 32.5408 96.8992 32.7056 96.3072 32.6991L93.1195 32.7001ZM105.249 29.384V28.8996C105.438 28.8326 105.604 28.7129 105.726 28.5548C105.849 28.3967 105.924 28.2067 105.943 28.0074H105.259V26.7013H106.696V27.9593C106.706 28.1966 106.636 28.4133 106.517 28.6221C106.38 28.8391 106.194 29.0209 105.974 29.1532C105.753 29.2854 105.506 29.3645 105.249 29.384ZM112.607 30.7106H114.488C114.528 31.0479 114.794 31.3254 115.153 31.4039C115.559 31.4921 115.965 31.4539 116.34 31.2754C116.394 31.2524 116.44 31.2154 116.475 31.1683C116.51 31.1213 116.531 31.0659 116.537 31.0077C116.544 30.9493 116.533 30.8902 116.507 30.8375C116.481 30.7849 116.441 30.7408 116.39 30.7106C116.245 30.6129 116.079 30.5489 115.906 30.5234L115.241 30.4332C114.963 30.3949 114.688 30.3352 114.419 30.2547C113.966 30.1345 113.544 29.9185 113.182 29.6213C112.954 29.4462 112.793 29.198 112.726 28.9183C112.567 28.3152 112.754 27.6907 113.232 27.2445C113.449 27.0376 113.686 26.8886 113.973 26.77C114.429 26.5915 114.875 26.5042 115.369 26.5042C115.866 26.5042 116.31 26.5729 116.777 26.7209C117.093 26.8396 117.362 26.9984 117.589 27.2357C117.965 27.6132 118.182 28.078 118.232 28.5937H116.321C116.291 28.2162 115.966 27.9103 115.568 27.8603C115.325 27.8278 115.078 27.8624 114.854 27.9603C114.79 27.9795 114.734 28.017 114.692 28.0681C114.649 28.1192 114.623 28.1816 114.616 28.2476C114.608 28.3118 114.617 28.3771 114.644 28.4362C114.67 28.4954 114.712 28.5461 114.765 28.5829C114.844 28.6427 114.912 28.6829 115.012 28.7133C115.181 28.7731 115.34 28.8114 115.518 28.8418C115.766 28.8918 115.993 28.93 116.25 28.98C116.489 29.03 116.718 29.08 116.955 29.1389C117.112 29.1791 117.252 29.2271 117.409 29.2977C117.945 29.535 118.311 29.9909 118.399 30.544C118.48 30.9695 118.389 31.396 118.133 31.7618C117.778 32.2863 117.213 32.6334 116.538 32.7325C115.933 32.8321 115.316 32.8417 114.708 32.7609C114.179 32.7145 113.679 32.4997 113.281 32.1481C113.073 31.9703 112.905 31.7501 112.789 31.5022C112.673 31.2543 112.611 30.9844 112.607 30.7106ZM134.391 31.3137H135.806C135.879 31.3156 135.952 31.3026 136.02 31.2757C136.088 31.2487 136.15 31.2083 136.202 31.1568C136.251 31.1113 136.289 31.056 136.314 30.9947C136.34 30.9333 136.352 30.8673 136.35 30.8009C136.348 30.7345 136.333 30.6692 136.304 30.6094C136.275 30.5495 136.234 30.4965 136.183 30.4537C136.086 30.3633 135.959 30.3131 135.827 30.3135H134.39L134.391 31.3137ZM134.391 28.9585H135.738C135.872 28.9541 136 28.8971 136.094 28.7996C136.141 28.7545 136.176 28.6985 136.197 28.6364C136.218 28.5744 136.223 28.5082 136.212 28.4437C136.192 28.3393 136.136 28.2449 136.055 28.176C135.964 28.1063 135.852 28.0687 135.738 28.0691H134.391V28.9585ZM132.39 32.7001V26.7003H136.234C136.628 26.7101 136.987 26.8004 137.333 26.968C137.608 27.1063 137.837 27.2936 138.006 27.5406C138.106 27.6995 138.174 27.8583 138.193 28.0466C138.243 28.4623 138.124 28.8683 137.846 29.1957C137.72 29.3524 137.552 29.4695 137.361 29.533C137.658 29.6311 137.907 29.7899 138.105 30.0174C138.283 30.2047 138.382 30.4234 138.42 30.6704C138.501 31.2656 138.242 31.85 137.727 32.2157C137.28 32.5353 136.743 32.7049 136.194 32.7001H132.39ZM144.392 32.7001V26.7003H149.917V28.2652H146.403V28.8585H149.364V30.3733H146.412V31.1352H149.907V32.7001H144.392ZM155.65 30.7106H157.531C157.571 31.0479 157.838 31.3254 158.195 31.4039C158.601 31.4921 159.007 31.4539 159.383 31.2754C159.501 31.2254 159.572 31.1264 159.582 31.0077C159.592 30.8891 159.542 30.7803 159.433 30.7106C159.287 30.6126 159.122 30.5486 158.948 30.5234L158.284 30.4332C158.006 30.3947 157.731 30.335 157.462 30.2547C157.01 30.1326 156.588 29.9168 156.224 29.6213C155.997 29.4456 155.836 29.1976 155.769 28.9183C155.61 28.3152 155.799 27.6907 156.274 27.2445C156.493 27.0376 156.73 26.8886 157.018 26.77C157.462 26.5924 157.936 26.5022 158.414 26.5042C158.908 26.5042 159.354 26.5729 159.82 26.7209C160.136 26.8396 160.404 26.9984 160.632 27.2357C161.007 27.6132 161.225 28.078 161.275 28.5937H159.364C159.334 28.2162 159.017 27.9103 158.611 27.8603C158.364 27.8299 158.127 27.8603 157.898 27.9603C157.836 27.9823 157.782 28.0206 157.74 28.0712C157.698 28.1217 157.671 28.1827 157.661 28.2476C157.652 28.3116 157.661 28.3769 157.687 28.4362C157.713 28.4954 157.755 28.5462 157.808 28.5829C157.883 28.6397 157.967 28.6837 158.057 28.7133C158.224 28.7731 158.383 28.8114 158.561 28.8418C158.82 28.8918 159.047 28.93 159.294 28.98C159.542 29.03 159.76 29.08 159.997 29.1389C160.156 29.1791 160.303 29.2271 160.453 29.2977C160.998 29.535 161.365 29.9909 161.454 30.544C161.522 30.9695 161.434 31.396 161.176 31.7618C160.82 32.2863 160.255 32.6334 159.583 32.7325C158.977 32.8321 158.359 32.8417 157.75 32.7609C157.222 32.7145 156.722 32.4997 156.325 32.1481C155.897 31.7598 155.66 31.2666 155.65 30.7106ZM168.77 32.7001V28.2554H166.918V26.7003H172.661V28.2741H170.78V32.7001H168.77ZM128.054 8.67849C128.054 6.38115 128.926 4.28186 130.55 2.65813C132.173 1.0344 134.273 0.172526 136.569 0.172526C137.688 0.169027 138.797 0.389775 139.829 0.821734C140.862 1.25369 141.797 1.88811 142.581 2.68755C144.195 4.32108 145.056 6.42135 145.046 8.71771V23.5607H138.898V16.8775H134.373V23.5607H128.055V8.67849H128.054ZM153.799 1.35111H160.691C163.72 1.2913 166.503 2.41104 168.671 4.52993C170.831 6.65863 171.988 9.42172 171.988 12.4515C171.988 15.4911 170.831 18.2532 168.671 20.3829C166.503 22.5028 163.72 23.6117 160.691 23.5617V17.1443C161.38 17.1471 162.063 17.0119 162.699 16.7467C163.335 16.4815 163.911 16.0915 164.394 15.5999C164.882 15.1156 165.267 14.5382 165.528 13.902C165.788 13.2658 165.917 12.5838 165.909 11.8965C165.913 11.2087 165.778 10.5271 165.512 9.89257C165.247 9.25799 164.856 8.68336 164.364 8.20294C163.879 7.71315 163.3 7.32646 162.662 7.06612C162.024 6.80579 161.34 6.67719 160.651 6.68805L159.947 6.67824V23.5617H153.799V1.35111ZM113.16 1.9855C114.386 1.11786 115.826 0.602015 117.323 0.493824C118.821 0.385632 120.32 0.689212 121.657 1.37169C122.994 2.04898 124.121 3.07817 124.917 4.34843C125.712 5.61869 126.146 7.08188 126.172 8.58044L126.272 23.5627H120.163V8.75791C120.174 8.24052 119.983 7.73928 119.629 7.36166C119.45 7.17682 119.236 7.02917 119 6.9272C118.763 6.82523 118.509 6.77095 118.252 6.76747C117.728 6.76747 117.243 6.96553 116.866 7.34205C116.684 7.52376 116.542 7.74026 116.446 7.97853C116.351 8.2168 116.305 8.47191 116.311 8.7285V23.6117H110.082V8.82753C110.088 8.57265 110.041 8.31932 109.946 8.08275C109.851 7.84619 109.71 7.63127 109.529 7.45089C109.152 7.08417 108.677 6.87729 108.153 6.87729C107.628 6.87729 107.153 7.08516 106.785 7.45089C106.604 7.63079 106.46 7.8454 106.363 8.08192C106.267 8.31845 106.219 8.57203 106.222 8.82753L106.232 23.5215H99.8949V8.86675C99.9635 5.72812 101.707 2.93562 104.49 1.49034C107.272 0.0450612 110.568 0.232337 113.16 1.9855ZM87.7228 9.45114L87.7532 23.5215H81.4348V8.78733C81.475 6.52038 82.3457 4.47012 83.9498 2.88561C85.5637 1.29129 87.6247 0.440208 89.8799 0.429422C90.9809 0.417237 92.0735 0.622661 93.0948 1.0339C94.1162 1.44514 95.0463 2.0541 95.8316 2.8258C97.4554 4.39952 98.3457 6.43997 98.4055 8.69712V23.5607H92.2773V9.53055C92.2867 9.22956 92.2354 8.92976 92.1266 8.64896C92.0178 8.36817 91.8536 8.11212 91.6439 7.89604C91.2164 7.4499 90.6634 7.20282 90.0388 7.19301C89.739 7.18765 89.4412 7.24172 89.1625 7.35213C88.8838 7.46253 88.6298 7.62706 88.415 7.83623C88.1977 8.04556 88.0245 8.2963 87.9056 8.57365C87.7867 8.85101 87.7245 9.14938 87.7228 9.45114ZM146.511 1.35111H152.66V23.5617H146.511V1.35111ZM24.0727 1.43053H30.2813V9.10403C30.8353 9.11384 31.3413 9.08442 31.8854 9.0354C32.5241 8.9624 33.1131 8.65535 33.5386 8.17353C33.9759 7.70194 34.2199 7.08312 34.222 6.43997V1.35111H40.46V8.13332C40.4614 8.78104 40.3262 9.42177 40.0633 10.0137C39.8004 10.6057 39.4157 11.1357 38.9344 11.569C40.0237 13.2918 40.5483 15.1636 40.4797 17.2031V23.5607H34.2014V17.0648C34.2014 16.401 33.9435 15.7872 33.469 15.3225C33.2396 15.0933 32.9657 14.9135 32.6642 14.7943C32.3627 14.675 32.0399 14.6189 31.7158 14.6292L30.2803 14.6096V23.5117H24.0727V1.43053ZM65.572 1.43053V6.51939H59.9282C59.7213 6.51422 59.5155 6.55099 59.3232 6.6275C59.1309 6.704 58.9562 6.81866 58.8094 6.96455C58.5123 7.26163 58.3449 7.66418 58.3436 8.0843C58.3436 8.50984 58.5025 8.89617 58.7986 9.19326C59.0957 9.50016 59.482 9.65901 59.9076 9.66881H65.571V14.9665H60.0968C59.9046 14.9652 59.7141 15.0031 59.5371 15.078C59.3601 15.1528 59.2002 15.2631 59.0673 15.4019C58.9318 15.535 58.8243 15.6938 58.7512 15.8692C58.6781 16.0445 58.6409 16.2327 58.6417 16.4226C58.6415 16.6138 58.6789 16.8032 58.7519 16.9799C58.825 17.1566 58.9321 17.3172 59.0673 17.4524C59.2024 17.5877 59.3629 17.6949 59.5396 17.7681C59.7163 17.8412 59.9056 17.8788 60.0968 17.8787L65.572 17.9189V23.5225H57.5122C56.2313 23.522 54.9819 23.1261 53.9345 22.3888C52.8872 21.6516 52.093 20.6089 51.6605 19.4033C51.2316 18.1959 51.1869 16.8854 51.5326 15.6516C51.8783 14.4177 52.5973 13.3212 53.5911 12.5123C52.6516 11.6243 52.0002 10.4748 51.7213 9.21249C51.4423 7.95021 51.5485 6.63325 52.0262 5.432C52.5009 4.23185 53.3246 3.2016 54.3907 2.47432C55.4569 1.74703 56.7167 1.35613 58.0073 1.35209L65.572 1.43053ZM51.0859 18.215L51.1653 23.5117C48.7395 23.8588 46.3833 23.1558 44.5213 21.5507C42.6603 19.9475 41.6298 17.7188 41.62 15.2626V1.35111H48.0953V14.7685C48.0757 15.6303 48.363 16.4226 48.9268 17.0658C49.474 17.7097 50.2461 18.1207 51.0859 18.215ZM134.203 11.0455V8.92656C134.194 8.61336 134.249 8.30159 134.364 8.01039C134.48 7.71918 134.654 7.45471 134.876 7.23321C135.092 7.00856 135.352 6.83102 135.64 6.71172C135.928 6.59243 136.238 6.53396 136.549 6.53999C137.193 6.53999 137.777 6.78708 138.223 7.25282C138.669 7.70778 138.898 8.30198 138.876 8.94617V11.0455H134.203ZM80.2464 1.46975V6.5596H74.6025C74.176 6.5596 73.7907 6.71844 73.4838 7.01456C73.1867 7.31165 73.018 7.69797 73.018 8.12352C73.018 8.54906 73.1769 8.93538 73.474 9.24228C73.7711 9.54918 74.1574 9.70803 74.5829 9.70803H80.2464V15.0156H74.7712C74.3751 15.0156 74.0181 15.1636 73.7416 15.4411C73.4651 15.7186 73.3161 16.0745 73.3161 16.4716C73.3161 16.8677 73.4642 17.2247 73.7416 17.5021C74.0191 17.7777 74.3751 17.9277 74.7712 17.9277L80.2464 17.9561V23.5617H72.1865C70.9046 23.5653 69.6532 23.171 68.6049 22.4332C67.5566 21.6954 66.7631 20.6505 66.3339 19.4426C65.9056 18.2349 65.8613 16.9244 66.2069 15.6906C66.5526 14.4568 67.2712 13.36 68.2645 12.5505C67.3249 11.6649 66.6733 10.5173 66.3942 9.25659C66.1152 7.99592 66.2216 6.68047 66.6996 5.48103C67.1717 4.27835 67.9945 3.24535 69.061 2.51607C70.1276 1.7868 71.3887 1.39493 72.6807 1.39131L80.2464 1.46975Z" fill="black"/>
<path fill-rule="evenodd" clip-rule="evenodd" d="M1.07088 1.34131H11.5967L1.07088 11.9662V1.34131ZM13.2998 1.36092H22.8059L0.991455 23.5117V13.6595L13.2998 1.36092Z" fill="#6ABFE9"/>
</svg>
