<svg width="217" height="103" viewBox="0 0 217 103" fill="none" xmlns="http://www.w3.org/2000/svg">
<path d="M68.5 88C88.6574 88 105 71.658 105 51.5C105 31.342 88.6584 15 68.5 15C48.3416 15 32 31.342 32 51.5C32 71.658 48.3416 88 68.5 88Z" fill="#A70B52"/>
<path d="M123 69.0757H149.018V61.4025H132.553V33.9261H123V69.0757ZM180.454 36.401C177.472 34.1442 173.631 33 169.047 33C163.605 33 159.057 34.6325 155.895 37.7172C152.595 40.9416 150.848 45.6913 150.848 51.4527C150.848 57.6078 152.695 62.8016 156.049 66.0738C158.682 68.6441 162.19 70 166.204 70C175.016 70 177.043 64.8422 177.043 64.8422V69.0739H185V49.2229H169.16V55.4348H176.45C176.45 55.4348 176.52 63.2557 168.996 63.2557C167.084 63.2557 165.381 62.5782 164.071 61.2989C162.029 59.3069 160.95 55.9501 160.95 51.5986C160.95 44.3913 163.883 40.0885 168.795 40.0885C171.864 40.0885 174.17 41.9281 174.762 44.7165H184.896C184.371 40.665 183.232 38.5533 180.454 36.401Z" fill="#808183"/>
<path d="M78 64.2159H69.9758V36H67V67H69.9758V66.9817H78V64.2159Z" fill="white"/>
<path d="M96.2055 52.6669H77.417V49.8687H98.9575C98.9862 50.4097 99 50.9516 99 51.5C99 68.3452 85.3443 82 68.5 82C51.6557 82 38 68.3452 38 51.5C38 34.6547 51.6557 21 68.5009 21C68.945 21 69.3881 21.0092 69.8285 21.0286L69.8248 23.8055C69.3838 23.7852 68.9424 23.775 68.5009 23.7751C53.1891 23.7751 40.7751 36.1881 40.7751 51.5C40.7751 66.8128 53.1881 79.2249 68.5009 79.2249C83.3955 79.2249 95.5464 67.4802 96.1982 52.7454L96.2055 52.6669Z" fill="white"/>
<path d="M57.5 44C58.6935 44 59.8381 43.5786 60.682 42.8284C61.5259 42.0783 62 41.0609 62 40C62 38.9391 61.5259 37.9217 60.682 37.1716C59.8381 36.4214 58.6935 36 57.5 36C56.3065 36 55.1619 36.4214 54.318 37.1716C53.4741 37.9217 53 38.9391 53 40C53 41.0609 53.4741 42.0783 54.318 42.8284C55.1619 43.5786 56.3065 44 57.5 44Z" fill="white"/>
</svg>
