<svg width="181" height="61" viewBox="0 0 181 61" fill="none" xmlns="http://www.w3.org/2000/svg">
<g clip-path="url(#clip0_27_224)">
<path d="M180.887 14.5228C178.425 0.177602 135.965 -4.29909 86.0441 4.52344C65.0792 8.23053 46.149 13.6983 31.407 19.8496C33.6715 19.9 35.351 20.4271 36.3715 21.4602C37.1693 22.271 37.5723 23.3838 37.5723 24.7701V26.1931H32.6772V24.9367C32.6772 23.8898 32.0588 23.241 30.9635 23.241C30.0431 23.241 29.476 23.6629 29.293 24.4938C29.2317 24.8222 29.2385 25.1601 29.3129 25.4858C29.8366 27.6591 37.1053 29.0089 37.8959 33.0198C37.9996 33.5359 38.1402 34.6405 37.9184 36.2209C37.465 39.4558 34.665 40.704 31.1005 40.704C26.1252 40.704 24.1041 38.3119 24.1041 35.0138L24.1077 33.4536H29.3552L29.3579 35.3973C29.3579 36.4899 30.1404 37.093 31.206 37.093C32.2156 37.093 32.8052 36.6802 33.009 35.8365C33.1036 35.4485 33.1451 34.8766 32.9729 34.4391C32.002 31.9665 25.2147 30.8117 24.379 26.8136C24.1924 25.9149 24.1771 25.1499 24.3322 24.1826C24.4117 23.7032 24.558 23.2376 24.7667 22.7999C8.41467 30.5628 -1.15097 39.1044 0.112909 46.4792C2.57666 60.8262 45.0365 65.2983 94.9562 56.4758C116.9 52.5985 136.628 46.794 151.642 40.2894C151.425 40.3004 151.214 40.3242 150.989 40.3242C147.572 40.3242 144.522 39.0247 144.205 35.4796C144.149 34.8345 144.139 34.5645 144.138 34.1966L144.139 26.0467C144.139 25.6953 144.18 25.0785 144.219 24.7601C144.623 21.3339 147.292 19.921 150.991 19.921C153.853 19.921 157.362 20.7547 157.748 24.7628C157.8 25.2661 157.794 25.8033 157.793 25.9799V26.7495H152.849V25.6011C152.849 25.5763 152.842 25.1472 152.788 24.879C152.707 24.47 152.364 23.5219 150.955 23.5219C149.564 23.5219 149.204 24.4718 149.114 24.88C149.062 25.1042 149.038 25.4263 149.038 25.7832V34.6405C149.034 34.9479 149.049 35.1886 149.079 35.3652C149.104 35.5043 149.354 36.7251 150.973 36.7251C152.58 36.7251 152.829 35.5043 152.851 35.3652C152.894 35.1255 152.899 34.84 152.897 34.6405V31.8961H150.952V28.9403H157.831V34.1985C157.829 34.5563 157.824 34.8207 157.764 35.4796C157.681 36.4094 157.393 37.1964 156.94 37.869C172.863 30.194 182.134 21.7906 180.887 14.5228ZM51.4443 39.9472L48.94 22.6736H48.8498L46.2815 39.9472H41.0033L44.5534 20.4399H53.1652L56.6936 39.9472H51.4443ZM76.8319 39.9472L76.7156 23.0076H76.6308L73.5252 39.9472H68.5716L65.4813 23.0076H65.393L65.2803 39.9472H60.3717L60.7972 20.4399H68.6924L70.9912 34.9306H71.1039L73.4089 20.4399H81.3005L81.7242 39.9472H76.8319ZM99.9468 36.1669C99.4185 39.9453 95.772 40.606 93.1947 40.606C88.9154 40.606 86.2686 38.7493 86.2686 34.9708L86.2713 33.4298H91.4557L91.4594 35.3497C91.4594 36.392 92.1833 37.0298 93.3011 37.0298C94.2981 37.0298 94.8823 36.6235 95.0851 35.7889C95.1789 35.4 95.2176 34.8326 95.0518 34.4044C94.0962 31.9784 87.3621 30.7897 86.5436 26.8538C86.3561 25.9616 86.3425 25.2039 86.4967 24.2467C87.0664 20.6787 90.4398 19.9375 93.155 19.9375C95.5836 19.9375 97.3515 20.4756 98.4116 21.5517C99.2022 22.3552 99.6025 23.4579 99.6025 24.8296V26.2371H94.7543V24.9953C94.7543 23.9319 94.1043 23.317 93.0595 23.317C92.1328 23.317 91.572 23.7352 91.3881 24.5578C91.3285 24.8829 91.3364 25.2171 91.4116 25.5388C91.9308 27.7021 99.1355 29.0245 99.9243 32.9979C100.026 33.5048 100.166 34.5929 99.9468 36.1669ZM117.903 34.3943C117.91 34.7603 117.875 35.4915 117.855 35.6791C117.559 38.893 115.295 40.5264 111.141 40.5264C106.972 40.5264 104.706 38.893 104.412 35.6791C104.379 35.2529 104.363 34.8255 104.364 34.398V20.4353H109.324V34.8381C109.319 35.1602 109.335 35.3982 109.366 35.5638C109.428 35.8841 109.741 36.9237 111.141 36.9237C112.537 36.9237 112.851 35.8832 112.916 35.5675C112.944 35.3973 112.962 35.1474 112.962 34.8372V20.4353H117.903V34.3943ZM139.272 39.7486H132.37L127.738 24.297H127.66L127.917 39.7486H123.107V20.4399H130.298L134.58 35.2829H134.68L134.427 20.4399H139.272V39.7486Z" fill="#2D4F9E"/>
</g>
<defs>
<clipPath id="clip0_27_224">
<rect width="181" height="61" fill="white"/>
</clipPath>
</defs>
</svg>
