<svg width="201" height="51" viewBox="0 0 201 51" fill="none" xmlns="http://www.w3.org/2000/svg">
<g clip-path="url(#clip0_28_12029)">
<path d="M26.5371 5.15193C26.659 5.27393 26.536 5.39493 26.413 5.51593C25.1931 5.02593 24.093 4.23593 22.689 4.16993C19.876 3.79693 17.365 4.99993 15.766 7.23593C15.152 8.08293 14.844 9.04994 14.596 10.0799C14.402 14.0099 14.314 20.6199 14.314 20.6199C10.4 20.6059 6.24105 20.6529 2.26805 20.5179C1.47505 19.7279 1.54005 18.5179 1.23805 17.4849C0.76805 12.1519 3.10805 7.67693 7.21605 4.41993C11.508 0.919935 18.726 0.459935 23.608 3.08293C24.646 3.63093 25.7451 4.23993 26.5371 5.15193Z" fill="#004B85"/>
<path d="M26.5371 5.15193C26.6591 5.27393 26.536 5.39493 26.413 5.51593C25.193 5.02593 24.093 4.23593 22.689 4.16993C19.876 3.79693 17.365 4.99993 15.766 7.23593C15.152 8.08293 14.844 9.04994 14.596 10.0799C14.402 14.0099 14.314 20.6199 14.314 20.6199C10.4 20.6059 6.24105 20.6529 2.26805 20.5179C1.47505 19.7279 1.54005 18.5179 1.23805 17.4849C0.76805 12.1519 3.10805 7.67693 7.21605 4.41993C11.508 0.919935 18.726 0.459935 23.608 3.08293C24.646 3.63093 25.7451 4.23993 26.5371 5.15193Z" stroke="white" stroke-width="1.368" stroke-linejoin="round"/>
<path d="M152.397 8.06204C152.771 9.13204 152.703 10.374 152.699 11.572L145.079 11.562C144.995 10.227 145.31 8.77104 144.149 7.84404C143.269 7.33804 141.885 7.27004 141.127 7.89704C140.747 8.27304 140.557 8.77604 140.681 9.34304C140.805 9.91104 140.929 10.603 141.621 10.858C144.514 11.938 147.406 13.018 150.235 14.35C153.188 15.81 152.672 19.46 152.662 22.293C152.468 23.993 151.769 25.627 150.13 26.439C145.273 28.691 138.22 28.855 133.761 25.565C132.192 24.047 132.641 21.531 132.649 19.39C132.638 19.356 140.142 19.39 140.142 19.39C140.262 20.838 139.816 22.563 140.882 23.637C141.699 24.143 142.895 24.337 143.715 23.773C144.601 22.958 144.668 21.573 144.232 20.501L143.289 19.616L135.429 16.439C133.23 15.237 132.419 13.092 132.489 10.762C132.686 8.93804 132.629 7.04904 134.145 5.73204C137.363 3.34904 141.833 3.36504 145.925 3.75804C148.57 4.08104 151.651 5.16304 152.397 8.06204ZM199.567 6.59204C200.507 7.91804 200.375 9.61804 200.495 11.255L200.501 27.475L200.275 27.599H191.886L191.834 10.47C191.298 9.14604 189.609 9.14104 188.224 9.13604C187.54 9.16904 187.001 9.06804 186.811 9.69804L186.774 27.58C185.414 27.665 181.297 27.545 178.587 27.597L178.464 27.408V3.93904L178.734 3.75104C180.297 3.73804 192.969 3.58204 195.735 3.93604C197.245 4.25604 198.625 5.26904 199.566 6.59304M60.907 7.37204C61.407 8.63504 61.653 10.146 61.396 11.532C58.8998 11.6483 56.3993 11.6393 53.904 11.505C53.593 10.118 54.04 8.48304 52.72 7.66004C51.967 7.34304 50.96 7.33804 50.203 7.58704C49.572 7.96304 49.38 8.65504 49.503 9.28604C49.503 9.97804 49.94 10.546 50.506 10.863C53.649 12.322 57.046 13.153 59.999 15.114C62.07 16.948 61.366 20.094 61.357 22.738C61.162 24.5 59.897 26.133 58.195 26.82C53.782 28.505 47.927 28.296 43.652 26.33C40.948 25.06 41.526 21.913 41.472 19.269L41.662 19.207L48.84 19.105L48.965 19.232C49.275 20.87 48.51 23.197 50.335 24.022C50.962 24.276 51.906 24.281 52.538 23.903C53.168 23.402 53.298 22.585 53.3 21.766C53.367 20.884 52.866 20.19 52.175 19.684C49.471 18.414 46.642 17.398 43.875 16.191C41.3 14.609 41.31 11.46 41.572 8.69104C41.765 7.05504 43.031 5.61104 44.481 4.92304C48.139 3.29804 53.05 3.37804 56.95 4.33604C58.585 4.72004 60.283 5.73304 60.906 7.37204M106.567 5.46204C108.449 7.54604 107.714 10.717 107.893 13.426L107.876 27.505C107.885 27.507 99.7 27.507 99.691 27.54L99.651 10.35C99.463 9.72004 98.809 9.34004 98.243 9.15004C97.379 8.97304 96.06 8.70104 95.49 9.51604L95.472 27.526C92.775 27.616 90.005 27.481 87.234 27.534L87.108 27.339L87.094 10.369C86.872 9.52404 86.321 9.32704 85.736 9.12304C85.14 8.97304 83.841 8.65704 83.09 9.52804L83.067 27.356V27.545L75.185 27.581L74.998 27.391L74.964 3.90404C74.964 3.90404 87.779 3.73404 88.879 3.95204C89.981 4.17204 90.892 4.65304 91.834 5.15904C92.591 4.91004 93.091 4.40904 93.979 4.09604C96.003 3.38404 102.219 3.85604 103.489 4.00504C104.659 4.29004 105.754 4.57904 106.567 5.46204ZM71.727 4.14204L71.798 27.439L71.483 27.626L63.666 27.606L63.414 27.479L63.443 4.04904L63.757 3.92604L71.602 3.95304L71.727 4.14204ZM127.917 4.01204C128.987 4.33104 129.992 5.02704 130.619 5.97204C131.369 7.73804 131.172 9.81604 131.292 11.83C130.965 14.852 132.085 18.95 128.68 20.322C125.72 21.004 119.357 20.78 119.17 20.857C118.983 20.933 118.842 21.416 118.853 21.233C118.865 21.053 118.884 27.593 118.884 27.593C116.093 27.622 113.356 27.617 110.482 27.581L110.515 3.90604C116.179 3.92604 122.127 3.73904 127.917 4.01204ZM118.864 9.19304V15.567C119.999 15.822 121.454 15.827 122.713 15.704C123.092 15.642 123.471 15.33 123.471 14.952C123.415 13.188 123.801 11.237 123.301 9.66204C122.84 8.92904 119.572 9.20404 118.864 9.19304Z" fill="black"/>
<path d="M31.6271 12.412C33.0771 17.447 31.5901 22.593 28.1521 26.279C24.1001 30.506 18.3441 32.063 12.5371 30.771C10.2771 30.036 8.07711 29.058 6.43311 27.113C6.49511 26.993 6.55711 26.749 6.80111 26.751C8.99811 28.273 12.2971 29.194 14.7511 27.627C16.6571 26.377 18.4551 25.429 18.4681 21.821L18.5621 12.002L18.7821 11.822C22.9421 11.897 27.1631 11.79 31.2001 11.864L31.6271 12.412Z" fill="#009DDC"/>
<path d="M31.6271 12.412C33.0771 17.447 31.5901 22.593 28.1521 26.279C24.1001 30.506 18.3441 32.063 12.5371 30.771C10.2771 30.036 8.07711 29.058 6.43311 27.113C6.49511 26.993 6.55711 26.749 6.80111 26.751C8.99811 28.273 12.2971 29.194 14.7511 27.627C16.6571 26.377 18.4551 25.429 18.4681 21.821L18.5621 12.002L18.7821 11.822C22.9421 11.897 27.1631 11.79 31.2001 11.864L31.6271 12.412Z" stroke="white" stroke-width="1.368" stroke-linejoin="round"/>
<path d="M175.007 7.89205C175.999 12.052 175.667 17.024 175.463 21.431C175.456 23.384 174.443 24.954 172.991 26.144C169.584 28.273 164.86 28.51 160.771 27.6761C158.883 27.229 156.871 26.09 155.809 24.323C154.309 20.224 154.894 15.3151 154.911 10.7181C154.792 8.26205 156.188 5.81105 158.521 4.87505C162.872 3.19005 168.601 3.08505 172.751 5.30205C173.692 5.87205 174.632 6.82005 175.007 7.89205ZM162.85 22.6451C162.85 24.337 167.572 24.4951 167.572 22.6451C167.572 20.795 167.542 11.5491 167.542 9.50205C167.542 7.45705 162.85 7.57505 162.85 9.50205V22.6451ZM52.177 47.0921C52.378 47.1921 52.55 47.2651 52.55 47.4961C52.5485 47.5946 52.5087 47.6887 52.4391 47.7585C52.3695 47.8282 52.2755 47.8682 52.177 47.8701C52.032 47.8701 51.744 47.7251 51.643 47.6821C51.051 47.3801 50.489 47.0051 50.071 46.7321C49.624 46.9901 48.889 47.409 47.461 47.409C43.611 47.409 42.646 44.1491 42.646 42.0741C42.646 39.882 43.684 36.7391 47.447 36.7391C51.297 36.7391 52.262 39.9981 52.262 42.0741C52.262 43.6031 51.787 45.1021 50.735 46.1961C51.181 46.5431 51.657 46.8461 52.177 47.0921ZM51.239 42.0741C51.239 41.6841 51.21 40.5021 50.649 39.4211C49.898 38.0371 48.442 37.5471 47.447 37.5471C46.509 37.5471 45.429 37.965 44.722 38.757C43.757 39.8671 43.67 41.4671 43.67 42.0741C43.67 42.6791 43.757 44.2941 44.722 45.3901C45.429 46.1961 46.525 46.6011 47.447 46.6011C47.807 46.6011 48.499 46.543 49.25 46.125C49.02 45.938 48.744 45.7651 48.081 45.4611C47.721 45.2891 47.634 45.1891 47.634 45.0151C47.634 44.7991 47.778 44.5961 48.024 44.5961C48.355 44.5961 49.278 45.1021 49.927 45.6501C50.893 44.7421 51.24 43.4001 51.24 42.0741M56.127 40.3321C56.127 40.015 56.127 39.597 56.576 39.597C57.021 39.597 57.007 40.001 57.007 40.3321V44.3981C57.007 45.0051 57.051 45.5661 57.311 45.9411C57.612 46.3881 58.161 46.632 58.753 46.632C59.1882 46.6269 59.6132 46.4999 59.98 46.2656C60.3467 46.0312 60.6405 45.6988 60.828 45.3061C61.03 44.8591 61.088 44.2681 61.088 42.9991V40.3321C61.088 40.015 61.074 39.597 61.519 39.597C61.968 39.597 61.968 40.001 61.968 40.3321V46.6761C61.968 47.0081 61.968 47.4121 61.519 47.4121C61.074 47.4121 61.088 47.0221 61.088 46.6761V46.1281C60.654 46.6911 60.078 47.4121 58.68 47.4121C57.541 47.4121 56.935 46.878 56.69 46.618C56.113 46.0131 56.127 45.076 56.127 44.6431V40.3321ZM70.877 41.0121C70.56 40.4051 69.809 40.2891 69.191 40.2891C68.728 40.2891 67.345 40.3761 66.956 41.3571C66.74 41.8891 66.696 42.0191 66.406 42.0191C66.3501 42.0188 66.2949 42.0074 66.2435 41.9855C66.192 41.9635 66.1455 41.9316 66.1067 41.8914C66.0678 41.8512 66.0374 41.8037 66.0172 41.7516C65.997 41.6995 65.9874 41.6439 65.989 41.5881C65.989 41.2411 66.45 39.5981 69.104 39.5981C71.959 39.5981 71.959 41.1401 71.959 42.7121C71.959 43.0871 71.929 44.7461 71.929 45.0911C71.929 45.4211 71.943 45.912 72.045 46.243C72.145 46.59 72.246 46.9071 72.246 47.0371C72.246 47.3111 71.986 47.4271 71.828 47.4271C71.353 47.4271 71.267 46.8211 71.18 46.1151C70.386 46.9801 69.263 47.4131 68.093 47.4131C66.61 47.4131 65.745 46.4601 65.745 45.3071C65.745 43.5051 67.475 43.2321 68.555 43.0591C69.998 42.8271 70.704 42.7261 71.078 42.5391C71.078 41.7471 71.064 41.3711 70.877 41.0121ZM68.8 43.7651C68.007 43.9241 66.667 44.0391 66.667 45.236C66.667 45.682 66.957 46.6061 68.267 46.6061C69.161 46.6061 70.43 46.1581 70.834 45.236C71.034 44.76 71.094 44.2401 71.078 43.2321C70.617 43.4621 69.708 43.5771 68.8 43.7651ZM77.077 46.6921C77.077 47.0091 77.077 47.4131 76.644 47.4131C76.197 47.4131 76.197 47.0231 76.197 46.6921V37.4781C76.197 37.147 76.197 36.743 76.63 36.743C77.077 36.743 77.077 37.147 77.077 37.4781V46.6921ZM81.827 38.1521C81.6779 38.1521 81.5348 38.0929 81.4292 37.9875C81.3237 37.8821 81.2643 37.7392 81.264 37.59C81.264 37.273 81.508 37.0271 81.827 37.0271C82.129 37.0271 82.389 37.273 82.389 37.59C82.389 37.892 82.129 38.1521 81.827 38.1521ZM82.259 46.6881C82.259 47.0051 82.259 47.409 81.827 47.409C81.378 47.409 81.378 47.0191 81.378 46.6891V40.3291C81.378 39.9981 81.378 39.5941 81.827 39.5941C82.259 39.5941 82.259 40.0261 82.259 40.3291V46.6881ZM87.647 39.7721H88.455C88.655 39.7721 89.016 39.772 89.016 40.0891C89.016 40.4201 88.642 40.4201 88.455 40.4201H87.647V45.3361C87.647 46.2321 87.747 46.6341 88.483 46.6341C88.585 46.6341 89.003 46.5771 89.089 46.5771C89.29 46.5771 89.42 46.7371 89.42 46.9241C89.42 47.2541 89.016 47.3551 88.396 47.3551C86.766 47.3551 86.766 46.3031 86.766 45.4381V40.4201H86.321C86.118 40.4201 85.758 40.4201 85.758 40.1031C85.758 39.773 86.132 39.7731 86.321 39.7731H86.767V38.444C86.767 37.883 86.753 37.5081 87.2 37.5081C87.647 37.5081 87.647 37.868 87.647 38.403V39.7721ZM97.567 40.1021C97.697 39.771 97.768 39.5981 98.042 39.5981C98.272 39.5981 98.446 39.798 98.446 39.958C98.446 40.0881 98.416 40.1451 98.316 40.3911L95.029 48.7231C94.509 50.0361 93.891 50.2681 93.27 50.2681C92.91 50.2681 92.246 50.208 92.246 49.7481C92.246 49.5611 92.362 49.3441 92.636 49.3441C92.75 49.3441 93.126 49.3741 93.213 49.3741C93.775 49.3741 93.962 49.0561 94.163 48.5501L94.683 47.2401L92.015 40.4921C91.915 40.2181 91.885 40.1451 91.885 40.0161C91.8906 39.9042 91.9386 39.7988 92.0192 39.7211C92.0998 39.6434 92.2071 39.5994 92.319 39.5981C92.636 39.5981 92.723 39.8421 92.853 40.2031L95.144 46.2311L97.567 40.1021ZM108.727 44.1721V46.6221C108.727 47.0271 108.713 47.4171 108.309 47.4171C107.891 47.4171 107.876 47.084 107.849 46.6091V37.6841C107.849 37.1211 107.849 36.7471 108.309 36.7471C108.756 36.7471 108.727 37.1371 108.727 37.5541V43.1491L112.187 39.889C112.246 39.861 112.461 39.6721 112.504 39.6451C112.573 39.6171 112.647 39.6021 112.721 39.6011C112.965 39.6011 113.138 39.7451 113.138 40.0051C113.138 40.1781 112.965 40.3361 112.922 40.3951L110.514 42.5571L113.168 46.2901C113.268 46.4361 113.542 46.7671 113.542 47.0131C113.542 47.273 113.282 47.4171 113.095 47.4171C112.835 47.4171 112.72 47.257 112.533 46.9831L109.866 43.1491L108.727 44.1721ZM117.117 43.6021C117.145 45.389 117.968 46.687 119.625 46.687C120.043 46.687 121.241 46.6011 121.832 45.0721C121.918 44.8851 122.047 44.7551 122.249 44.7551C122.509 44.7551 122.681 44.9711 122.681 45.159C122.681 45.405 122.076 47.409 119.596 47.409C117.275 47.409 116.193 45.7061 116.193 43.4991C116.193 41.1491 117.405 39.5931 119.596 39.5931C122.783 39.5931 122.825 42.8521 122.825 42.9811C122.825 43.6011 122.452 43.6011 122.003 43.6011L117.117 43.6021ZM121.903 42.8811C121.859 42.4341 121.832 41.7851 121.341 41.1211C121.024 40.7041 120.417 40.3141 119.568 40.3141C118.861 40.3141 118.197 40.6171 117.765 41.1791C117.275 41.813 117.188 42.391 117.131 42.8811H121.903ZM127.557 49.5421C127.557 49.8581 127.543 50.2771 127.11 50.2771C126.677 50.2771 126.677 49.8731 126.677 49.5421V40.3281C126.677 39.9971 126.677 39.5931 127.11 39.5931C127.543 39.5931 127.557 39.9971 127.557 40.3281V40.9761C127.961 40.4871 128.696 39.5931 130.355 39.5931C132.833 39.5931 133.685 41.6831 133.685 43.4291C133.685 44.784 133.123 47.409 130.282 47.409C128.652 47.409 127.961 46.571 127.557 46.0961V49.5421ZM130.267 40.3141C129.642 40.3077 129.034 40.5227 128.552 40.9211C128.018 41.3521 127.557 42.0441 127.557 43.6161C127.557 45.764 128.797 46.687 130.195 46.687C131.493 46.687 132.762 45.663 132.762 43.486C132.762 41.41 131.623 40.3141 130.268 40.3141M138.627 39.7721H139.435C139.635 39.7721 139.996 39.772 139.996 40.0891C139.996 40.4201 139.622 40.4201 139.435 40.4201H138.627V45.3361C138.627 46.2321 138.727 46.6341 139.464 46.6341C139.564 46.6341 139.982 46.5771 140.069 46.5771C140.272 46.5771 140.4 46.7371 140.4 46.9241C140.4 47.2541 139.996 47.3551 139.377 47.3551C137.748 47.3551 137.748 46.3031 137.748 45.4381V40.4201H137.301C137.098 40.4201 136.738 40.4201 136.738 40.1031C136.738 39.773 137.114 39.7731 137.301 39.7731H137.748V38.444C137.748 37.883 137.733 37.5081 138.18 37.5081C138.627 37.5081 138.627 37.868 138.627 38.403V39.7721ZM152.007 47.4121C150.825 47.4121 150.263 47.0951 149.903 46.7761C149.44 46.3721 149.124 45.7831 149.124 45.3651C149.124 45.1191 149.355 44.9611 149.556 44.9611C149.816 44.9611 149.903 45.1911 150.003 45.4361C150.493 46.604 151.56 46.6911 152.066 46.6911C153.478 46.6911 154.097 45.9701 154.097 45.278C154.097 44.341 153.102 44.0961 152.627 43.9661C151.113 43.5461 150.523 43.4601 149.96 43.0581C149.744 42.9009 149.569 42.6945 149.448 42.4561C149.328 42.2177 149.266 41.9541 149.268 41.687C149.268 41.2261 149.556 39.597 151.893 39.597C154.401 39.597 154.617 41.2991 154.617 41.4271C154.617 41.5001 154.574 41.8031 154.214 41.8031C154.026 41.8031 153.924 41.7461 153.796 41.3561C153.622 40.8501 153.246 40.5621 152.671 40.4181C152.433 40.3461 152.185 40.3123 151.936 40.3181C150.984 40.3181 150.133 40.7211 150.133 41.514C150.133 42.378 151.055 42.6681 152.31 42.9421C153.478 43.2001 155.007 43.5621 155.007 45.1481C155.007 45.7671 154.675 47.4121 152.007 47.4121ZM159.277 38.1521C159.128 38.1518 158.985 38.0925 158.88 37.9872C158.774 37.8819 158.715 37.7391 158.714 37.59C158.72 37.445 158.782 37.3079 158.887 37.2074C158.992 37.1069 159.131 37.0508 159.277 37.0508C159.422 37.0508 159.561 37.1069 159.666 37.2074C159.771 37.3079 159.833 37.445 159.839 37.59C159.836 37.7383 159.776 37.8798 159.672 37.9846C159.567 38.0894 159.425 38.1495 159.277 38.1521ZM159.71 46.6881C159.71 47.0051 159.71 47.409 159.277 47.409C158.83 47.409 158.83 47.0191 158.83 46.6891V40.3291C158.83 39.9981 158.83 39.5941 159.277 39.5941C159.71 39.5941 159.71 40.0261 159.71 40.3291V46.6881ZM173.737 46.6921C173.737 47.0091 173.737 47.4131 173.29 47.4131C172.857 47.4131 172.857 47.0231 172.857 46.6921V42.5961C172.857 41.7041 172.857 40.3481 171.329 40.3481C169.57 40.3481 169.31 42.0781 169.31 43.5631V46.7201C169.31 47.0231 169.31 47.4131 168.892 47.4131C168.475 47.4131 168.432 47.0231 168.432 46.7061V42.4971C168.432 41.7161 168.489 40.3761 167.003 40.3761C165.49 40.3761 164.885 41.7591 164.885 43.2451V46.6621C164.885 46.9941 164.899 47.4121 164.452 47.4121C164.005 47.4121 164.005 47.0091 164.005 46.6761V40.333C164.005 40.015 164.005 39.5981 164.452 39.5981C164.899 39.5981 164.885 39.986 164.885 40.3181V40.8231C165.187 40.4051 165.821 39.5981 167.149 39.5981C168.546 39.5981 168.936 40.376 169.152 40.8381C169.556 40.348 170.175 39.5981 171.502 39.5981C172.324 39.5981 172.886 39.958 173.175 40.2751C173.434 40.549 173.737 41.097 173.737 42.1511V46.6921ZM178.937 49.5421C178.937 49.8581 178.922 50.2771 178.49 50.2771C178.057 50.2771 178.057 49.8731 178.057 49.5421V40.3281C178.057 39.9971 178.057 39.5931 178.49 39.5931C178.922 39.5931 178.937 39.9971 178.937 40.3281V40.9761C179.341 40.4871 180.076 39.5931 181.734 39.5931C184.214 39.5931 185.064 41.6831 185.064 43.4291C185.064 44.784 184.503 47.409 181.662 47.409C180.032 47.409 179.341 46.571 178.937 46.0961V49.5421ZM181.647 40.3141C181.022 40.3077 180.414 40.5227 179.932 40.9211C179.398 41.3521 178.937 42.0441 178.937 43.6161C178.937 45.764 180.177 46.687 181.575 46.687C182.873 46.687 184.142 45.663 184.142 43.486C184.142 41.41 183.002 40.3141 181.647 40.3141ZM189.797 46.6921C189.797 47.0091 189.797 47.4131 189.365 47.4131C188.918 47.4131 188.918 47.0231 188.918 46.6921V37.4781C188.918 37.147 188.918 36.743 189.35 36.743C189.797 36.743 189.797 37.147 189.797 37.4781V46.6921ZM194.537 43.6021C194.567 45.389 195.388 46.687 197.047 46.687C197.464 46.687 198.661 46.6011 199.252 45.0721C199.338 44.8851 199.468 44.7551 199.669 44.7551C199.779 44.7538 199.886 44.7951 199.967 44.8703C200.048 44.9455 200.096 45.0489 200.103 45.159C200.103 45.405 199.498 47.409 197.017 47.409C194.695 47.409 193.615 45.7061 193.615 43.4991C193.615 41.1491 194.825 39.5931 197.017 39.5931C200.203 39.5931 200.247 42.8521 200.247 42.9811C200.247 43.6011 199.872 43.6011 199.425 43.6011L194.537 43.6021ZM199.324 42.8811C199.281 42.4341 199.252 41.7851 198.763 41.1211C198.443 40.7041 197.839 40.3141 196.988 40.3141C196.641 40.3095 196.298 40.3852 195.985 40.5352C195.672 40.6853 195.399 40.9056 195.185 41.1791C194.695 41.813 194.608 42.391 194.551 42.8811H199.324Z" fill="black"/>
</g>
<defs>
<clipPath id="clip0_28_12029">
<rect width="200" height="49.562" fill="white" transform="translate(0.5 0.718994)"/>
</clipPath>
</defs>
</svg>
