<svg width="203" height="33" viewBox="0 0 203 33" fill="none" xmlns="http://www.w3.org/2000/svg">
<path d="M10.759 10.2598C11.0297 10.4818 11.2327 10.8371 11.2327 11.2813C11.2327 11.5034 11.1988 11.681 11.1312 11.8587C10.9958 12.214 10.6913 12.4805 10.353 12.4805C9.947 12.4805 9.57483 12.0808 9.50717 11.5478C9.50717 11.459 9.47333 11.3701 9.47333 11.2813C9.47333 10.6151 9.87933 10.1265 10.353 10.1265C10.3868 10.1265 10.4207 10.1265 10.4545 10.1265C10.5222 10.1265 10.556 10.1709 10.6237 10.1709C10.6575 10.1709 10.6575 10.1709 10.6913 10.2153C10.6913 10.2153 10.7252 10.2153 10.7252 10.2598C10.7252 10.2598 10.7252 10.2598 10.759 10.2598ZM46.0133 25.1831C50.1748 25.1831 53.3213 23.4065 53.3213 17.7658C53.3213 13.6353 50.8853 12.2584 48.4493 11.3701C47.0283 10.8372 45.7765 10.3486 44.8968 9.99327V7.28398H46.1825V9.99327H52.983V9.1494C52.983 5.59624 51.6297 2.57604 45.5735 2.57604C40.9383 2.57604 38.164 4.66353 38.2317 9.7712C38.2993 13.5909 40.2955 14.8345 42.427 15.8116C43.7465 16.389 45.066 16.8775 46.1825 17.4105V20.5195H44.863V17.3217H37.9948V17.8102C37.9948 24.961 42.3932 25.1831 46.0133 25.1831ZM62.0503 19.9865H60.697V12.747H62.0503V19.9865ZM67.8358 22.3405C68.4448 20.8748 68.4787 18.7874 68.4787 16.2557C68.4787 12.747 68.208 10.6595 67.0577 9.19382C66.3472 8.30552 65.4675 7.81696 64.2157 7.81696C62.2533 7.77255 61.1707 8.79409 60.6632 9.86003V8.12786H54.4378V30.2019H60.7308V23.2288C61.3737 24.3392 62.4563 25.0498 64.148 25.0498C65.9073 25.0498 67.1253 24.0283 67.8358 22.3405ZM77.2753 14.3903H75.922V11.2813H77.2753V14.3903ZM81.1323 23.9394C82.621 22.9623 83.7037 21.0081 83.7037 18.9206H77.2415V21.0525H75.8882V17.2328H83.6698V16.0337C83.6698 13.1023 83.2977 11.8587 82.8917 10.926C81.8428 8.70525 79.9143 7.63931 76.7002 7.63931C71.3207 7.63931 69.3922 10.5262 69.3922 16.389C69.3922 21.6299 70.7455 25.0942 76.4633 25.0942C77.8505 25.0942 79.576 24.961 81.1323 23.9394ZM92.5003 14.3903H91.147V11.2813H92.5003V14.3903ZM96.3912 23.9394C97.8798 22.9623 98.9625 21.0081 98.9625 18.9206H92.5003V21.0525H91.147V17.2328H98.9287V16.0337C98.9287 13.1023 98.5565 11.8587 98.1505 10.926C97.1017 8.70525 95.1732 7.63931 91.959 7.63931C86.5795 7.63931 84.651 10.5262 84.651 16.389C84.651 21.6299 86.0043 25.0942 91.7222 25.0942C93.0755 25.0942 94.8348 24.961 96.3912 23.9394ZM107.59 19.8089H106.271V12.7026H107.59V19.8089ZM113.917 24.5612V3.24226H107.59V9.46029C106.846 8.43876 105.797 7.81696 104.207 7.81696C102.684 7.81696 101.534 8.48318 100.756 10.0821C100.113 11.4145 99.876 13.5909 99.9098 16.6999C99.9437 19.3647 100.113 22.074 101.297 23.5397C102.177 24.6501 103.09 24.8721 104.105 24.8721C105.729 24.8721 106.846 24.0283 107.556 22.9623V24.5168H113.917V24.5612ZM131.138 20.6528H129.852V7.46164H131.138V20.6528ZM138.886 25.1831V20.6528H137.431C137.972 19.0094 138.074 16.0337 138.074 13.8573C138.074 5.10768 136.484 2.57604 130.529 2.57604C124.574 2.57604 122.984 5.15209 122.984 13.8573C122.984 17.9879 123.187 21.0525 124.71 22.8735C125.894 24.2948 127.552 25.1386 130.292 25.1386H138.886V25.1831ZM153.536 24.5612V8.12786H147.209V19.8977H145.889V8.12786H139.529V18.5653C139.529 20.6528 139.833 21.7631 140.172 22.5182C140.747 23.8506 141.965 24.8721 143.487 24.9166C145.111 25.0054 146.295 24.1615 147.209 22.9623V24.6057H153.536V24.5612ZM162.366 14.3903H161.013V11.2813H162.366V14.3903ZM166.223 23.9394C167.712 22.9623 168.794 21.0081 168.794 18.9206H162.332V21.0525H160.979V17.2328H168.761V16.0337C168.761 13.1023 168.389 11.8587 167.983 10.926C166.934 8.70525 165.005 7.63931 161.791 7.63931C156.411 7.63931 154.483 10.5262 154.483 16.389C154.483 21.6299 155.836 25.0942 161.52 25.0942C162.941 25.0942 164.701 24.961 166.223 23.9394ZM177.591 14.3903H176.238V11.2813H177.591V14.3903ZM181.482 23.9394C182.971 22.9623 184.053 21.0081 184.053 18.9206H177.591V21.0525H176.238V17.2328H184.019V16.0337C184.019 13.1023 183.647 11.8587 183.241 10.926C182.192 8.70525 180.264 7.63931 177.05 7.63931C171.67 7.63931 169.742 10.5262 169.742 16.389C169.742 21.6299 171.095 25.0942 176.813 25.0942C178.2 25.0942 179.926 24.961 181.482 23.9394ZM199.075 24.5612V13.2355C199.075 9.86002 197.587 7.59489 194.948 7.63931C192.918 7.63931 191.7 8.79408 191.192 9.72678V8.12786H185.068V24.5612H191.361V12.747H192.715V24.5612H199.075ZM201.308 22.6514V22.0296H201.647C201.816 22.0296 201.985 22.074 201.985 22.3405C201.985 22.6514 201.816 22.6958 201.613 22.6958H201.308V22.6514ZM201.308 22.9179H201.579L201.985 23.8062H202.256L201.816 22.9179C202.053 22.8735 202.222 22.6958 202.222 22.3405C202.222 21.9408 202.053 21.7631 201.68 21.7631H201.072V23.8506H201.308V22.9179ZM201.613 24.2948C201.004 24.2948 200.496 23.6729 200.496 22.7847C200.496 21.9408 200.97 21.2746 201.613 21.2746C202.222 21.2746 202.729 21.8964 202.729 22.7847C202.695 23.6285 202.222 24.2948 201.613 24.2948ZM200.226 22.7847C200.226 23.8062 200.868 24.5612 201.613 24.5612C202.357 24.5612 203 23.8062 203 22.7847C203 21.7631 202.357 21.0081 201.613 21.0081C200.835 21.0081 200.226 21.7631 200.226 22.7847ZM13.6348 10.1265C13.601 10.1265 13.5672 10.1265 13.5333 10.1265H13.4995C13.0597 10.2153 12.7213 10.7039 12.7213 11.2813C12.7213 11.9475 13.1273 12.4805 13.6348 12.4805C13.804 12.4805 13.9393 12.4361 14.0747 12.3028C14.1423 12.2584 14.1762 12.214 14.2438 12.1252C14.413 11.9031 14.5145 11.6366 14.5145 11.2813C14.5145 10.6595 14.1085 10.1265 13.6348 10.1265ZM16.8152 10.1265C16.7813 10.1265 16.7813 10.1265 16.7475 10.1265C16.7475 10.1265 16.7475 10.1265 16.7137 10.1265C16.3753 10.1709 16.0708 10.5262 15.9693 10.926C15.9355 11.0148 15.9355 11.148 15.9355 11.2813C15.9355 11.9475 16.3415 12.4805 16.849 12.4805C16.8828 12.4805 16.9505 12.4805 16.9843 12.4805C17.3565 12.3917 17.6272 12.0363 17.7287 11.5922C17.7625 11.5034 17.7625 11.4145 17.7625 11.3257C17.7287 10.6595 17.3227 10.1265 16.8152 10.1265ZM21.1458 22.607C21.1797 22.6514 21.2473 22.6958 21.2812 22.6958C21.315 22.6958 21.3827 22.6514 21.4503 22.607C23.0405 21.1857 24.1908 19.3203 24.7322 17.144C24.969 16.2113 25.0705 15.2342 25.0705 14.2127C25.0705 8.17228 20.503 3.19785 14.9205 3.19785C9.30417 3.19785 4.7705 8.17228 4.7705 14.2127C4.7705 18.965 7.57867 23.0511 11.5033 24.5612C12.4845 24.961 13.5672 25.1831 14.6837 25.1831H14.7175C14.819 25.1831 14.8867 25.1386 14.9205 25.0942C14.9205 25.0498 14.9543 25.0498 14.9543 25.0054C14.9543 24.9166 14.9205 24.8277 14.8867 24.6945C14.616 23.9839 14.3453 23.2732 14.1085 22.5626C13.0258 19.6312 11.9432 16.7443 10.8605 13.8573L10.8267 13.8129H10.8943C10.9958 13.8129 11.0973 13.7685 11.1988 13.7685C11.3342 13.7685 11.4695 13.8129 11.571 14.035C11.6725 14.2571 11.774 14.5236 11.8755 14.79C12.0108 15.0565 12.1123 15.323 12.2477 15.5895C12.2815 15.7228 12.3492 15.8116 12.383 15.9448C12.4845 16.1225 12.586 16.3001 12.6875 16.4778C13.0258 16.9219 13.4995 17.144 13.8717 17.144C14.3453 17.144 14.7513 16.7887 14.7513 16.0337C14.7513 15.7228 14.6837 15.2786 14.5145 14.79C14.4468 14.6124 14.3453 14.3903 14.2777 14.1682C14.2438 14.0794 14.21 13.9462 14.1762 13.8573L14.0747 13.7685H14.1423H14.5822C14.7175 13.7685 14.7852 13.8573 14.8528 13.9906C14.9205 14.1238 14.9543 14.2571 15.022 14.3459C15.1235 14.568 15.225 14.8345 15.3265 15.0565C15.4957 15.4118 15.5972 15.5895 15.8002 15.9004C16.1385 16.4778 16.5107 16.7887 16.849 16.8775C16.9505 16.9219 17.0182 16.9219 17.1197 16.9219C17.255 16.9219 17.3903 16.8775 17.5257 16.7887C17.7625 16.611 17.8978 16.2557 17.8978 15.8116C17.8978 15.7228 17.8978 15.5895 17.864 15.4563C17.8302 15.2342 17.7963 15.0565 17.6948 14.79C17.6272 14.6124 17.5595 14.4347 17.4918 14.2127C17.4242 14.0794 17.3903 13.9018 17.3227 13.7685L17.2888 13.7241H17.3565H17.8302C17.864 13.7241 17.8978 13.7241 17.9317 13.7241C17.9993 13.7685 18.0332 13.8573 18.067 13.9462C19.0143 16.6999 20.0632 19.4536 21.0443 22.2073C21.0782 22.2517 21.112 22.3405 21.1458 22.4293C21.112 22.5626 21.112 22.5626 21.1458 22.607ZM22.8037 26.5155C22.6345 26.6043 22.533 26.7376 22.533 26.9152C22.533 27.0485 22.5668 27.1817 22.6683 27.3594C23.0743 28.4253 23.548 29.7577 23.8863 30.646C24.157 31.3567 24.6307 31.9341 25.1382 32.4226C25.172 32.467 25.2058 32.5559 25.2058 32.6447C25.2058 32.8223 25.1043 32.9556 24.8675 32.9556C23.2435 33 21.6533 32.9556 20.0293 33C17.864 33 17.2212 31.0902 16.9167 30.2463C16.8152 29.9354 16.6122 29.358 16.4092 28.9139C16.24 28.4697 16.2062 28.4697 15.834 28.4697C15.5972 28.4697 15.3265 28.4697 15.1235 28.4697C6.8005 28.4697 0 22.074 0 14.2571C0 6.3957 6.8005 0 15.1235 0C23.4465 0 30.247 6.3957 30.247 14.2571C30.2132 19.4536 27.2358 23.9839 22.8037 26.5155ZM25.9502 30.7349V31.0458H26.2547V32.9556H26.4915V31.0458H26.796V30.7349H25.9502ZM28.2847 30.7349L27.811 32.4226L27.3373 30.7349H26.9652V32.9112H27.202V31.0013L27.7433 32.9112H27.9125L28.4538 31.0013L28.42 32.9112H28.6568V30.7349H28.2847Z" fill="#EF4923"/>
</svg>
