<svg width="177" height="57" viewBox="0 0 177 57" fill="none" xmlns="http://www.w3.org/2000/svg">
<path fill-rule="evenodd" clip-rule="evenodd" d="M127.218 23.2164C128.014 23.2164 128.65 23.8322 128.65 24.5671C128.65 25.322 128.014 25.9378 127.218 25.9378C126.959 25.9378 126.701 25.8777 126.504 25.7586C126.701 26.2362 126.82 26.7518 126.82 27.3086V29.5924C126.818 30.6351 126.403 31.6344 125.666 32.3718C124.929 33.1093 123.93 33.5248 122.887 33.5274C122.152 33.5274 121.456 33.3081 120.881 32.9507V34.6989H125.768C126.72 34.6989 128.31 35.4729 128.31 37.5595C128.31 39.6461 126.878 40.4201 125.768 40.4201H120.881C120.398 40.4278 119.929 40.2515 119.571 39.9269C119.213 39.6023 118.992 39.1536 118.952 38.6719C118.913 37.7978 119.588 36.8626 120.881 36.7435C119.291 36.5853 118.952 35.553 118.952 34.5397C118.972 33.6045 119.728 32.8696 120.561 32.7524C120.07 32.3847 119.67 31.9079 119.394 31.3596C119.119 30.8112 118.974 30.2063 118.971 29.5924V27.3086C118.971 25.1428 120.74 23.3746 122.886 23.3746C124.038 23.3746 125.071 23.8712 125.806 24.6662C125.806 24.6462 125.786 24.6061 125.786 24.5661C125.788 23.8322 126.443 23.2164 127.218 23.2164ZM28.6843 0.330444C44.2189 0.330444 56.8729 12.9854 56.8729 28.5001C56.8729 44.0147 44.2179 56.6697 28.6843 56.6697C13.1686 56.6697 0.514648 44.0147 0.514648 28.5001C0.514648 12.9854 13.1686 0.330444 28.6843 0.330444Z" fill="black"/>
<path fill-rule="evenodd" clip-rule="evenodd" d="M28.6843 2.9928C42.7491 2.9928 54.1915 14.4553 54.1915 28.5C54.1915 42.5458 42.7491 54.0083 28.6843 54.0083C14.6385 54.0083 3.17603 42.5468 3.17603 28.5C3.17703 14.4553 14.6385 2.9928 28.6843 2.9928Z" fill="white"/>
<path fill-rule="evenodd" clip-rule="evenodd" d="M16.2876 22.6396L22.2271 35.2746L28.6843 22.7187H28.8825L35.578 35.2746L41.4985 22.6787C41.7168 22.7187 41.936 22.7187 42.1533 22.7187C44.5173 22.7187 46.4447 20.8113 46.4447 18.4473C46.4447 16.1033 44.5173 14.1759 42.1533 14.1759C39.8093 14.1759 37.8829 16.1033 37.8829 18.4473C37.8829 19.8581 38.5778 21.1097 39.6111 21.8847L35.578 30.3273L31.0092 22.0839C31.6331 21.7039 32.1488 21.17 32.507 20.5334C32.8652 19.8968 33.0539 19.1788 33.0548 18.4483C33.0548 16.1043 31.1284 14.1769 28.7834 14.1769C26.4194 14.1769 24.493 16.1043 24.493 18.4483C24.493 19.9983 25.327 21.349 26.5586 22.1039L22.2872 30.3273L18.2941 21.5873C19.1282 20.7933 19.6649 19.6799 19.6649 18.4483C19.6649 16.1043 17.7374 14.1769 15.3935 14.1769C13.0295 14.1769 11.1021 16.1043 11.1021 18.4483C11.1021 20.8123 13.0295 22.7197 15.3935 22.7197C15.6919 22.7197 15.9892 22.6997 16.2876 22.6396ZM19.6649 37.1209H37.8819C39.6892 37.1209 41.1791 38.6108 41.1791 40.4001C41.1746 41.2731 40.8258 42.1092 40.2084 42.7266C39.591 43.3439 38.755 43.6928 37.8819 43.6972H19.6649C18.7916 43.693 17.9553 43.3443 17.3377 42.7269C16.7201 42.1095 16.3712 41.2733 16.3667 40.4001C16.3667 38.5918 17.8576 37.1209 19.6649 37.1209ZM87.9442 31.9974H85.4611V32.7524C85.4611 33.9429 84.667 34.5397 83.872 34.5397C83.078 34.5397 82.283 33.9429 82.283 32.7524V30.5656H87.9452V27.1483C87.9452 24.566 86.197 23.0762 83.813 23.0762C81.5481 23.0762 79.7008 24.9035 79.7008 27.1483V32.8906C79.7008 35.1354 81.5481 36.9617 83.813 36.9617C86.0588 36.9617 87.9452 35.1544 87.9452 32.8906V31.9974H87.9442Z" fill="black"/>
<path fill-rule="evenodd" clip-rule="evenodd" d="M85.46 28.1826H82.282V27.4677C82.282 26.136 83.076 25.4812 83.871 25.4812C84.666 25.4812 85.46 26.1561 85.46 27.4677V28.1826Z" fill="white"/>
<path fill-rule="evenodd" clip-rule="evenodd" d="M176.485 31.9975H174.002V32.7524C174.002 33.9429 173.228 34.5397 172.434 34.5397C171.638 34.5397 170.844 33.9429 170.844 32.7524V30.5656H176.486V27.1483C176.486 24.5661 174.757 23.0762 172.374 23.0762C170.109 23.0762 168.264 24.9035 168.264 27.1483V32.8906C168.264 35.1354 170.11 36.9617 172.374 36.9617C174.619 36.9617 176.486 35.1544 176.486 32.8906V31.9975H176.485Z" fill="black"/>
<path fill-rule="evenodd" clip-rule="evenodd" d="M174.001 28.1826H170.843V27.4677C170.843 26.136 171.637 25.4812 172.433 25.4812C173.227 25.4812 174.001 26.1561 174.001 27.4677V28.1826Z" fill="white"/>
<path fill-rule="evenodd" clip-rule="evenodd" d="M105.069 23.4938H107.511V36.6264H105.069V23.4938ZM111.882 24.2097C112.597 23.5338 113.491 23.1573 114.405 23.2164C116.173 23.3556 117.346 24.507 117.346 26.7319V36.6264H114.863V27.2285C114.863 26.2352 114.386 25.6195 113.392 25.6395C112.816 25.6395 111.883 26.1561 111.883 26.871V36.6264H109.438V23.4938H111.883L111.882 24.2097ZM131.966 24.2097C132.682 23.5338 133.575 23.1573 134.489 23.2164C136.257 23.3556 137.431 24.507 137.431 26.7319V36.6264H134.948V27.2285C134.948 26.2352 134.451 25.6195 133.477 25.6395C132.9 25.6395 131.967 26.1561 131.967 26.871V36.6264H129.503V19.8992H131.967L131.966 24.2097ZM154.394 35.9105C153.659 36.5853 152.765 36.9628 151.852 36.8847C150.084 36.7435 148.91 35.6121 148.91 33.3883V23.4948H151.393V32.8916C151.393 33.8849 151.89 34.4797 152.864 34.4797C153.461 34.4596 154.393 33.963 154.393 33.2491V23.4938H156.835V36.6264H154.393L154.394 35.9105ZM106.279 19.6399C107.094 19.6399 107.75 20.2957 107.75 21.1098C107.747 21.4969 107.59 21.8671 107.315 22.1389C107.039 22.4107 106.667 22.562 106.279 22.5596C105.896 22.5575 105.528 22.404 105.257 22.1326C104.986 21.8611 104.832 21.4935 104.831 21.1098C104.828 20.7229 104.98 20.351 105.251 20.0755C105.523 19.8 105.893 19.6433 106.279 19.6399ZM147.204 27.2685V32.9307C147.204 35.6121 145.177 36.9628 143.15 36.9628C141.123 36.9628 139.098 35.6111 139.098 32.9307V27.2685C139.098 24.6663 141.123 23.1573 143.15 23.1964C145.177 23.2354 147.204 24.448 147.204 27.2685Z" fill="black"/>
<path fill-rule="evenodd" clip-rule="evenodd" d="M144.818 27.3286V32.7724C144.818 34.0441 144.024 34.6598 143.23 34.6598C142.415 34.6598 141.621 34.024 141.621 32.7724V27.3286C141.621 26.1961 142.415 25.6004 143.23 25.5804C144.024 25.5603 144.818 26.117 144.818 27.3286Z" fill="white"/>
<path fill-rule="evenodd" clip-rule="evenodd" d="M99.3075 21.1698H101.75V23.4937H103.676V25.6004H101.75V33.6055C101.75 34.6989 102.227 35.612 103.2 36.6273H100.537C99.5648 35.612 99.3065 34.6989 99.3065 33.6055V25.6004H93.5452C92.8904 25.6004 91.9752 25.9378 91.9752 27.0102C91.9952 28.0234 93.3269 28.7594 94.3002 29.1559C96.4649 30.069 97.6564 31.2816 97.6164 33.3271C97.5573 35.5329 95.9683 36.9237 93.365 36.9237C89.9286 36.9237 88.9944 34.3815 89.0545 32.0565H91.777C91.6969 33.3882 92.0743 34.5397 93.425 34.6398C94.4964 34.7379 94.935 33.963 94.954 33.2881C94.974 31.8973 93.2248 31.3597 92.1124 30.7459C90.4243 29.8307 89.412 28.6983 89.412 27.1694C89.412 25.6595 90.5835 23.4947 93.5442 23.4947H99.3055V21.1698H99.3075ZM69.627 36.6263H67.0647L64.085 19.8992H66.9256L68.4745 30.2493L70.462 19.8992H73.2035L75.0308 30.2493L76.8191 19.8992H79.4213L76.5007 36.6263H73.8393L71.8318 25.2429L69.627 36.6263ZM158.189 32.1366H160.712C160.753 33.6856 161.567 34.7179 162.56 34.7379C163.276 34.759 164.15 34.4796 164.15 33.2891C164.15 32.395 163.354 31.7381 162.341 31.2225C160.612 30.3694 158.607 29.277 158.586 26.9921C158.586 24.6682 160.851 23.1583 162.838 23.3175C164.766 23.4557 166.673 24.4489 166.693 27.6079H164.07C164.09 26.2372 163.515 25.6024 162.56 25.6024C161.945 25.6024 161.19 26.2382 161.19 26.874C161.19 27.9463 162.819 28.5431 163.832 29.0978C165.719 30.1521 166.912 31.642 166.852 33.4102C166.813 35.2586 165.125 36.8876 162.461 36.9267C160.036 36.9437 157.95 34.8371 158.189 32.1366Z" fill="black"/>
<path fill-rule="evenodd" clip-rule="evenodd" d="M120.882 36.7244H125.55C126.166 36.7244 126.463 37.182 126.463 37.6376C126.463 38.0952 126.146 38.5527 125.55 38.5527H120.882V36.7244ZM124.337 27.1293V29.4532C124.337 30.4875 123.582 31.0232 122.827 31.0232C122.072 31.0232 121.317 30.4875 121.317 29.4532V27.1293C121.317 25.9778 122.072 25.4211 122.827 25.4211C123.582 25.4211 124.337 25.9778 124.337 27.1293Z" fill="white"/>
</svg>
