<svg width="185" height="57" viewBox="0 0 185 57" fill="none" xmlns="http://www.w3.org/2000/svg">
<path fill-rule="evenodd" clip-rule="evenodd" d="M67.4511 7.0386C67.2513 7.79628 66.7856 8.98374 63.8636 10.7057C56.4905 15.05 44.2144 15.4487 34.6488 15.2091C19.9066 14.8414 13.7637 11.4634 12.2493 10.1081C11.3587 9.31067 11.4994 8.63255 12.4889 7.87681C15.1995 5.80362 24.8446 5.08669 31.2223 5.08669C37.599 5.08669 44.8945 6.52152 44.8537 8.27456C44.8139 9.9888 41.3059 10.2284 40.5085 10.308C39.9914 10.3594 39.3424 10.1547 39.3928 9.8297C39.4724 9.31164 40.3494 9.31164 40.7471 9.23209C41.1458 9.15254 41.3049 8.83336 41.3049 8.43561C41.3049 7.87778 39.7508 7.31897 38.4751 7.15987C34.7284 6.20331 29.9049 6.46235 27.3553 6.64182C22.8112 6.961 19.6631 8.39583 19.6233 9.43097C19.6233 10.4671 22.297 13.5812 35.6064 14.0149C52.7448 14.5727 60.7164 11.6235 64.6222 8.83337C67.2523 6.76115 65.2596 5.40587 62.7091 4.13014C55.7726 0.86077 42.5399 0.542558 35.9236 0.463007C28.4302 0.372784 15.995 1.2595 10.7339 2.21702C9.53874 2.5362 9.77739 3.49179 11.4509 3.17261C13.364 2.8544 26.9954 1.89785 33.6117 2.21702C40.2281 2.5362 48.2793 2.37613 55.7726 6.04325C57.0474 6.8407 57.4471 8.27456 55.533 9.31164C53.6189 10.3487 48.7595 12.7323 37.438 12.8187C26.9954 12.8982 25.6605 11.1452 24.7641 10.4273C24.3654 10.1081 24.2994 9.22433 25.7197 8.51419C26.6856 8.03479 27.7507 7.7892 28.829 7.79726C29.6662 7.79726 29.9446 8.71404 29.0676 8.79359C28.1111 9.03321 27.1545 9.18747 27.1545 9.8297C27.1545 10.3478 27.7919 10.4273 28.4293 10.6669C29.0667 10.9066 32.2555 11.6235 36.3213 11.6235C42.3003 11.6235 46.8435 10.827 49.4745 9.23209C50.5901 8.67426 50.9093 6.92025 48.9962 6.28287C46.1265 5.32631 40.8655 3.65282 30.0242 3.65282C22.5299 3.65282 8.65882 4.77819 4.67446 5.88414C3.23963 6.28287 0.0507812 7.23943 0.0507812 8.91389C0.0507812 10.5883 2.23068 11.4295 3.23963 11.7836C9.13807 13.8558 25.7963 16.35 32.335 16.4072C50.5892 16.5673 60.8726 15.052 67.1698 9.63179C67.6481 9.03418 68.4843 8.11643 68.6046 7.20062C68.7618 6.00929 67.6898 5.92197 67.4511 7.0386ZM49.9654 19.5582C54.5367 19.5582 55.7319 19.3991 57.6392 18.9209V31.6743C59.2244 28.9443 61.3926 28.9637 63.7831 28.9637C65.8562 28.9637 68.5125 30.8536 68.5125 34.9864V40.3629C68.5125 43.7564 68.7337 45.0942 70.9466 45.0942H71.0377V46.6435H61.512V45.0942C63.2087 45.0942 63.3455 43.1326 63.3455 41.5464L63.3475 40.3629V35.2085C63.3863 33.0296 62.6684 31.7568 61.2335 31.7539C58.4298 31.749 57.6392 34.0269 57.6392 37.0518V40.9207C57.7129 43.4285 57.6062 45.0651 59.7579 45.0942V46.6435H49.7801V45.0942C51.9192 45.0942 52.4635 43.8583 52.4732 41.4785V23.4388C52.4732 21.6586 52.5033 21.2327 51.2285 21.4714C49.588 21.972 49.1243 22.8131 48.3986 25.089L41.3049 47.537H39.71L34.2899 32.3127L28.7902 47.537H27.1953L17.3105 23.5445C16.6828 21.5887 15.2005 21.4005 13.2456 21.2899V19.5582H25.7614V21.2899H25.2812C23.9531 21.3268 24.0054 21.7022 24.0054 22.588C24.0054 23.0682 24.0345 23.4854 24.4042 24.7398L29.7448 39.3277L33.4119 29.1238L31.8965 25.3771C30.9749 22.426 30.7013 21.3123 27.9112 21.2899V19.5582H39.2298V21.2899L38.6031 21.3637C37.7154 21.4714 37.5544 21.8798 37.5544 22.7287C37.5544 23.171 37.6281 23.3922 37.9977 24.536L42.2605 38.2906L46.9638 23.3049C47.2829 21.8701 45.8481 21.3123 45.0507 21.2327V19.5582H49.9654ZM81.2523 23.8686C81.2523 25.4547 79.9242 26.7829 78.3012 26.7829C76.6781 26.7829 75.3869 25.4547 75.3869 23.8317C75.3869 22.2455 76.716 20.9174 78.3012 20.9174C79.0832 20.9197 79.8325 21.2314 80.3854 21.7843C80.9384 22.3373 81.25 23.0866 81.2523 23.8686ZM73.2894 46.6668H83.3546V45.0089C81.1776 45.0089 80.9564 43.8971 80.9564 40.4657V28.8279C79.348 29.3857 77.2069 29.4653 72.8403 29.4653V31.2183H73.5785C75.5334 31.2183 75.7914 33.2663 75.7914 33.3459V40.4657C75.7914 43.8592 75.5033 45.0089 73.2894 45.0089V46.6668ZM93.0521 30.581C94.7256 28.5883 97.4595 29.2305 97.6758 29.2266C99.4288 29.1869 100.323 31.0845 100.346 32.3747C100.376 34.1443 99.2183 35.484 97.5963 35.484C96.0819 35.484 94.9303 34.4615 94.9565 32.95C94.9643 32.4941 95.0079 32.1623 95.2165 31.9537C95.3989 31.7713 95.364 31.6947 95.364 31.6578C95.364 31.5841 95.4338 31.1398 95.3242 31.1398C95.0642 31.1398 94.6499 30.9157 94.0892 31.618C93.1327 32.8132 93.0919 33.7708 93.0851 35.2842V42.5369C93.1588 43.3489 93.3597 44.2531 94.1688 44.7712C94.552 45.0176 94.6364 45.1175 95.5231 45.1175V46.6668H85.5219V45.0098C87.6979 45.0098 87.9201 43.9776 87.9201 40.5462V33.2915C87.9201 31.0777 86.8869 31.2183 84.9689 31.2183V29.4915C89.2259 29.4915 90.9789 29.4653 93.0521 29.0122V30.581ZM181.35 40.7596C181.35 44.1532 182.086 44.7052 184.302 45.0127V46.562H173.235V44.9846C175.43 44.746 176.187 44.191 176.187 40.7606V23.7269C176.147 22.0272 175.111 21.2298 173.863 21.1949L173.236 21.2308V19.4787C177.582 19.4768 179.176 19.5563 181.351 18.9985V40.7596H181.35ZM163.562 28.9113C158.453 28.9113 154.626 32.5067 154.626 38.0035C154.626 43.4634 158.292 47.2421 163.524 47.2421C168.816 47.2421 172.172 43.5925 172.172 38.0588C172.172 32.6377 168.816 28.9113 163.562 28.9113ZM166.425 42.5301C166.425 43.2912 166.122 44.0211 165.584 44.5593C165.046 45.0975 164.316 45.3998 163.555 45.3998C162.794 45.3998 162.064 45.0975 161.526 44.5593C160.988 44.0211 160.685 43.2912 160.685 42.5301V33.3012C160.685 32.5401 160.988 31.8102 161.526 31.2721C162.064 30.7339 162.794 30.4316 163.555 30.4316C164.316 30.4316 165.046 30.7339 165.584 31.2721C166.122 31.8102 166.425 32.5401 166.425 33.3012V42.5301ZM143.388 28.9113C138.279 28.9113 134.452 32.5067 134.452 38.0035C134.452 43.4634 138.118 47.2421 143.35 47.2421C148.642 47.2421 151.998 43.5925 151.998 38.0588C151.998 32.6377 148.642 28.9113 143.388 28.9113ZM146.251 42.5301C146.251 42.907 146.176 43.2802 146.032 43.6283C145.888 43.9765 145.677 44.2928 145.41 44.5593C145.144 44.8258 144.827 45.0372 144.479 45.1814C144.131 45.3256 143.758 45.3998 143.381 45.3998C143.004 45.3998 142.631 45.3256 142.283 45.1814C141.935 45.0372 141.618 44.8258 141.352 44.5593C141.085 44.2928 140.874 43.9765 140.73 43.6283C140.586 43.2802 140.511 42.907 140.511 42.5301V33.3012C140.511 32.5401 140.814 31.8102 141.352 31.2721C141.89 30.7339 142.62 30.4316 143.381 30.4316C144.142 30.4316 144.872 30.7339 145.41 31.2721C145.948 31.8102 146.251 32.5401 146.251 33.3012V42.5301ZM108.766 40.7596C108.766 44.1532 109.502 44.7052 111.719 45.0127V46.562H100.651V44.9846C102.846 44.746 103.603 44.191 103.603 40.7606V23.7269C103.564 22.0272 102.527 21.2298 101.279 21.1949L100.652 21.2308V19.4787C104.998 19.4768 106.592 19.5563 108.767 18.9985V40.7596H108.766ZM124.921 28.9016C123.653 28.9016 122.808 29.1558 122.215 29.5778L120.78 30.5082L120.525 29.2393L112.494 29.831V31.4366C114.015 31.6064 115.199 32.4514 115.199 34.3111V51.5573C115.199 53.7556 115.031 54.9382 112.24 54.9382V56.6292H123.738V54.9382C121.964 54.6006 121.034 53.7547 121.034 51.8105V46.3991L121.879 47.1606C122.386 47.667 123.485 48.0056 124.585 48.0056C128.473 48.0056 132.192 43.5255 132.192 38.2839C132.191 32.7065 128.895 28.9016 124.921 28.9016ZM125.937 42.176C125.937 44.6276 125.43 45.8112 123.822 45.8112C122.217 45.8112 120.949 44.29 120.949 41.9219V34.9893C120.949 32.6231 122.132 31.2698 123.484 31.2698C124.837 31.2698 125.936 32.5377 125.936 34.1443L125.937 42.176Z" fill="black"/>
</svg>
