<svg width="50" height="51" viewBox="0 0 50 51" fill="none" xmlns="http://www.w3.org/2000/svg">
<path d="M39.3749 44.25L27.9687 32.8437L32.3437 28.4687L43.7499 39.875L39.3749 44.25ZM10.6249 44.25L6.24992 39.875L20.6249 25.5L17.0833 21.9583L15.6249 23.4166L12.9687 20.7604V25.0312L11.5103 26.4895L5.20825 20.1875L6.66659 18.7291H10.9374L8.33325 16.125L15.7291 8.72913C16.4235 8.03468 17.1701 7.53121 17.9687 7.21871C18.7673 6.90621 19.5833 6.74996 20.4166 6.74996C21.2499 6.74996 22.0659 6.90621 22.8645 7.21871C23.6631 7.53121 24.4096 8.03468 25.1041 8.72913L20.3124 13.5208L22.9166 16.125L21.4583 17.5833L24.9999 21.125L29.6874 16.4375C29.5485 16.0555 29.4357 15.6562 29.3489 15.2395C29.2621 14.8229 29.2187 14.4062 29.2187 13.9895C29.2187 11.9409 29.9218 10.2135 31.328 8.80725C32.7343 7.401 34.4617 6.69788 36.5103 6.69788C37.0312 6.69788 37.526 6.74996 37.9947 6.85413C38.4635 6.95829 38.9409 7.11454 39.427 7.32288L34.2708 12.4791L38.0208 16.2291L43.177 11.0729C43.4201 11.559 43.585 12.0364 43.6718 12.5052C43.7586 12.9739 43.802 13.4687 43.802 13.9895C43.802 16.0382 43.0989 17.7656 41.6926 19.1718C40.2864 20.5781 38.5589 21.2812 36.5103 21.2812C36.0937 21.2812 35.677 21.2465 35.2603 21.177C34.8437 21.1076 34.4444 20.9861 34.0624 20.8125L10.6249 44.25Z" fill="black"/>
</svg>
