<svg width="51" height="50" viewBox="0 0 51 50" fill="none" xmlns="http://www.w3.org/2000/svg">
<path d="M33.9999 22.9166C34.5902 22.9166 35.085 22.717 35.4843 22.3177C35.8836 21.9184 36.0833 21.4236 36.0833 20.8333C36.0833 20.243 35.8836 19.7482 35.4843 19.3489C35.085 18.9496 34.5902 18.75 33.9999 18.75C33.4096 18.75 32.9149 18.9496 32.5155 19.3489C32.1162 19.7482 31.9166 20.243 31.9166 20.8333C31.9166 21.4236 32.1162 21.9184 32.5155 22.3177C32.9149 22.717 33.4096 22.9166 33.9999 22.9166ZM17.3333 18.75H27.7499V14.5833H17.3333V18.75ZM10.0416 43.75C8.86103 39.7916 7.69784 35.842 6.552 31.901C5.40617 27.96 4.83325 23.9236 4.83325 19.7916C4.83325 16.5972 5.94436 13.8888 8.16659 11.6666C10.3888 9.4444 13.0971 8.33329 16.2916 8.33329H26.7083C27.7152 7.01385 28.9392 5.98954 30.3801 5.26038C31.8211 4.53121 33.3749 4.16663 35.0416 4.16663C35.9096 4.16663 36.6475 4.47045 37.2551 5.07808C37.8628 5.68572 38.1666 6.42357 38.1666 7.29163C38.1666 7.49996 38.1405 7.70829 38.0885 7.91663C38.0364 8.12496 37.9756 8.31593 37.9062 8.48954C37.7673 8.87149 37.6371 9.26211 37.5155 9.66142C37.394 10.0607 37.2985 10.4687 37.2291 10.8854L41.9687 15.625H46.4999V30.1562L40.6145 32.0833L37.1249 43.75H25.6666V39.5833H21.4999V43.75H10.0416ZM13.1666 39.5833H17.3333V35.4166H29.8333V39.5833H33.9999L37.2291 28.8541L42.3333 27.1354V19.7916H40.2499L32.9583 12.5C32.9583 11.8055 33.0017 11.1371 33.0885 10.4948C33.1753 9.85239 33.3055 9.20135 33.4791 8.54163C32.4721 8.8194 31.5867 9.29683 30.8228 9.97392C30.0589 10.651 29.5034 11.493 29.1562 12.5H16.2916C14.2777 12.5 12.5589 13.2118 11.1353 14.6354C9.71172 16.059 8.99992 17.7777 8.99992 19.7916C8.99992 23.1944 9.46867 26.5191 10.4062 29.7656C11.3437 33.0121 12.2638 36.2847 13.1666 39.5833Z" fill="black"/>
</svg>
