<svg width="234" height="50" viewBox="0 0 234 50" fill="none" xmlns="http://www.w3.org/2000/svg">
<path d="M44.8032 36.9185V22.161C46.9669 21.02 48.2976 18.876 48.2976 16.492C48.2976 14.374 47.2108 12.3865 45.3903 11.176C45.2312 11.07 45.0242 11.0585 44.8531 11.1445C44.682 11.231 44.5744 11.4015 44.5744 11.5875V15.7775L42.0888 17.5115V11.5875C42.0888 11.585 42.0872 11.583 42.0872 11.58V2.508C42.0872 2.2315 41.8543 2.008 41.5672 2.008H4.22395C3.93691 2.008 3.70395 2.2315 3.70395 2.508V11.58C3.70395 11.5825 3.70239 11.5845 3.70239 11.5875V47.4925C3.70239 47.769 3.93535 47.9925 4.22239 47.9925H38.038H41.5688C41.8558 47.9925 42.0888 47.769 42.0888 47.4925V41.568L44.5744 43.302V47.492C44.5744 47.678 44.6815 47.8485 44.8531 47.935C44.929 47.973 45.0117 47.992 45.0944 47.992C45.1984 47.992 45.3014 47.962 45.3898 47.903C47.2103 46.6935 48.2971 44.7045 48.2971 42.582C48.2976 40.2015 46.9669 38.0595 44.8032 36.9185ZM38.558 12.0875H41.0488V17.5125L38.558 15.777V12.0875ZM4.74395 3.008H41.0472V11.0855H4.74395V3.008ZM4.74239 46.992V12.087H36.6454C36.621 12.1125 36.5997 12.14 36.5758 12.166C36.5248 12.22 36.478 12.2765 36.4291 12.3325C36.3173 12.4605 36.2102 12.591 36.1093 12.7265C36.062 12.79 36.0147 12.8535 35.9694 12.919C35.866 13.0685 35.7703 13.2225 35.6803 13.3795C35.6522 13.4285 35.6205 13.476 35.594 13.5255C35.4827 13.732 35.3834 13.9445 35.2955 14.1615C35.2742 14.2145 35.2576 14.2695 35.2378 14.323C35.1749 14.4915 35.1187 14.6625 35.0704 14.836C35.0496 14.9115 35.0308 14.9875 35.0132 15.064C34.9747 15.2275 34.943 15.3925 34.918 15.5595C34.9071 15.6315 34.8941 15.7035 34.8858 15.776C34.8582 16.013 34.84 16.2515 34.84 16.492C34.84 18.877 36.1686 21.0215 38.3292 22.161V36.9185C36.1686 38.058 34.84 40.2005 34.84 42.5825C34.84 42.8235 34.8582 43.0625 34.8858 43.299C34.8941 43.3715 34.9071 43.443 34.918 43.5155C34.9435 43.683 34.9747 43.8485 35.0137 44.0125C35.0319 44.089 35.0501 44.165 35.0709 44.2405C35.1192 44.415 35.1759 44.587 35.2388 44.7565C35.2586 44.8095 35.2747 44.8635 35.2955 44.916C35.3834 45.134 35.4827 45.3465 35.594 45.5535C35.6205 45.6025 35.6512 45.649 35.6793 45.6975C35.7698 45.8555 35.866 46.0105 35.97 46.161C36.0147 46.2255 36.0615 46.2885 36.1083 46.3515C36.2102 46.4875 36.3173 46.6195 36.4302 46.748C36.4785 46.803 36.5248 46.8585 36.5747 46.912C36.5992 46.938 36.6205 46.966 36.6449 46.992H4.74239ZM41.0488 46.992H38.558V43.3025L41.0488 41.567V46.992ZM45.6144 46.423V43.0475C45.6144 42.8875 45.5348 42.737 45.3996 42.6425L41.874 40.1825C41.8642 40.1755 41.8522 40.173 41.8423 40.167C41.8293 40.159 41.8189 40.149 41.8054 40.142C41.7914 40.135 41.7758 40.133 41.7607 40.1275C41.7404 40.1195 41.7201 40.1125 41.6988 40.107C41.6702 40.1 41.6416 40.0965 41.6125 40.094C41.5979 40.093 41.5834 40.0875 41.5688 40.0875C41.562 40.0875 41.5553 40.0905 41.5485 40.0905C41.5173 40.0915 41.4872 40.098 41.457 40.1045C41.4383 40.1085 41.419 40.11 41.4003 40.116C41.3525 40.132 41.3057 40.153 41.2636 40.1825L37.7328 42.6425C37.5981 42.7365 37.518 42.887 37.518 43.0475V46.4085C37.4759 46.367 37.4312 46.328 37.3906 46.2855C37.3396 46.2325 37.2892 46.1795 37.2408 46.1245C37.1446 46.016 37.0547 45.9035 36.9678 45.788C36.9314 45.74 36.8924 45.6935 36.8581 45.644C36.7416 45.4785 36.6335 45.3085 36.5368 45.132C36.5232 45.1075 36.5128 45.081 36.4998 45.0565C36.4187 44.903 36.3449 44.7455 36.2788 44.585C36.2539 44.5235 36.2326 44.461 36.2097 44.399C36.1624 44.2695 36.1192 44.139 36.0818 44.006C36.0625 43.937 36.0443 43.868 36.0277 43.7985C35.9954 43.662 35.9694 43.5235 35.9481 43.384C35.9382 43.321 35.9263 43.2585 35.919 43.195C35.8951 42.9925 35.88 42.7885 35.88 42.5825C35.88 42.3195 35.8992 42.0605 35.9367 41.806C36.1982 40.0245 37.3521 38.4825 39.0775 37.6715C39.2558 37.5875 39.3692 37.413 39.3692 37.2225V21.8575C39.3692 21.6665 39.2558 21.4925 39.0775 21.4085C37.3521 20.5975 36.1982 19.054 35.9367 17.27C35.8992 17.015 35.88 16.7555 35.88 16.492C35.88 16.2865 35.8951 16.083 35.919 15.881C35.9263 15.818 35.9382 15.7555 35.9481 15.693C35.9694 15.5535 35.9954 15.415 36.0282 15.278C36.0448 15.209 36.0625 15.1405 36.0818 15.072C36.1192 14.9385 36.1629 14.807 36.2102 14.677C36.2326 14.616 36.2534 14.554 36.2783 14.4935C36.3454 14.3305 36.4203 14.171 36.503 14.015C36.5149 13.993 36.5238 13.9695 36.5362 13.9475C36.6335 13.7705 36.7422 13.5995 36.8592 13.433C36.8924 13.3855 36.9299 13.341 36.9647 13.295C37.0526 13.178 37.1446 13.0635 37.2424 12.953C37.2897 12.8995 37.3391 12.8475 37.389 12.7955C37.4301 12.7525 37.4754 12.7125 37.5185 12.6705V16.0315C37.5185 16.1915 37.5986 16.3425 37.7333 16.4365L41.2641 18.8965C41.3093 18.928 41.3587 18.952 41.4102 18.968C41.4544 18.9815 41.5002 18.9865 41.5459 18.9885C41.5537 18.989 41.561 18.992 41.5693 18.992C41.6416 18.992 41.7113 18.9725 41.7784 18.9435C41.7872 18.94 41.7971 18.9415 41.8054 18.937C41.8189 18.9305 41.8298 18.92 41.8423 18.912C41.8527 18.906 41.8642 18.9035 41.874 18.8965L45.3996 16.4365C45.5343 16.3425 45.6144 16.192 45.6144 16.0315V12.656C46.657 13.6705 47.2576 15.0445 47.2576 16.4915C47.2576 18.5955 46.0304 20.4795 44.0549 21.4075C43.8766 21.4915 43.7632 21.666 43.7632 21.8565V37.221C43.7632 37.412 43.8766 37.586 44.0549 37.67C46.0304 38.598 47.2576 40.48 47.2576 42.581C47.2576 44.0315 46.6575 45.408 45.6144 46.423Z" fill="white" stroke="white" stroke-width="0.5"/>
<path d="M22.8957 16.1195C15.2002 16.1195 8.93994 22.1395 8.93994 29.539C8.93994 36.9385 15.2007 42.958 22.8957 42.958C30.5907 42.958 36.8515 36.9385 36.8515 29.539C36.8515 22.1395 30.5912 16.1195 22.8957 16.1195ZM22.8957 41.958C15.7738 41.958 9.97994 36.3865 9.97994 29.539C9.97994 22.691 15.7743 17.1195 22.8957 17.1195C30.0171 17.1195 35.8115 22.691 35.8115 29.539C35.8115 36.3865 30.0176 41.958 22.8957 41.958Z" fill="white" stroke="white" stroke-width="0.5"/>
<path d="M17.1604 28C16.8731 28 16.6399 28.2235 16.6399 28.5V31.691C16.6399 31.9675 16.8731 32.191 17.1604 32.191C17.4477 32.191 17.6809 31.9675 17.6809 31.691V28.5C17.6809 28.2235 17.4477 28 17.1604 28Z" fill="white" stroke="white" stroke-width="0.5"/>
<path d="M10.4905 4.59451C9.08443 4.59451 7.94043 5.69401 7.94043 7.04601C7.94043 8.39801 9.08443 9.49751 10.4905 9.49751C11.8966 9.49751 13.0406 8.39801 13.0406 7.04601C13.0406 5.69401 11.8966 4.59451 10.4905 4.59451ZM10.4905 8.49801C9.65799 8.49801 8.98043 7.84651 8.98043 7.04651C8.98043 6.24651 9.65799 5.59501 10.4905 5.59501C11.323 5.59501 12.0006 6.24651 12.0006 7.04651C12.0006 7.84651 11.323 8.49801 10.4905 8.49801Z" fill="white" stroke="white" stroke-width="0.5"/>
<path d="M18.7605 4.59451C17.3544 4.59451 16.2104 5.69401 16.2104 7.04601C16.2104 8.39801 17.3544 9.49751 18.7605 9.49751C20.1666 9.49751 21.3101 8.39801 21.3101 7.04601C21.3101 5.69401 20.1666 4.59451 18.7605 4.59451ZM18.7605 8.49801C17.928 8.49801 17.2504 7.84651 17.2504 7.04651C17.2504 6.24651 17.928 5.59501 18.7605 5.59501C19.593 5.59501 20.2701 6.24651 20.2701 7.04651C20.2701 7.84651 19.593 8.49801 18.7605 8.49801Z" fill="white" stroke="white" stroke-width="0.5"/>
<path d="M27.0305 4.59451C25.6244 4.59451 24.481 5.69401 24.481 7.04601C24.481 8.39801 25.625 9.49751 27.0305 9.49751C28.4366 9.49751 29.5806 8.39801 29.5806 7.04601C29.5806 5.69401 28.4366 4.59451 27.0305 4.59451ZM27.0305 8.49801C26.198 8.49801 25.521 7.84651 25.521 7.04651C25.521 6.24651 26.198 5.59501 27.0305 5.59501C27.863 5.59501 28.5406 6.24651 28.5406 7.04651C28.5406 7.84651 27.863 8.49801 27.0305 8.49801Z" fill="white" stroke="white" stroke-width="0.5"/>
<path d="M35.3008 4.59451C33.8947 4.59451 32.7507 5.69401 32.7507 7.04601C32.7507 8.39801 33.8947 9.49751 35.3008 9.49751C36.7069 9.49751 37.8504 8.39801 37.8504 7.04601C37.8504 5.69401 36.7069 4.59451 35.3008 4.59451ZM35.3008 8.49801C34.4683 8.49801 33.7907 7.84651 33.7907 7.04651C33.7907 6.24651 34.4683 5.59501 35.3008 5.59501C36.1333 5.59501 36.8104 6.24651 36.8104 7.04651C36.8104 7.84651 36.1333 8.49801 35.3008 8.49801Z" fill="white" stroke="white" stroke-width="0.5"/>
<path d="M22.88 21C17.7189 21 13.52 25.0377 13.52 30.0002C13.52 34.9627 17.7189 39 22.88 39C28.0412 39 32.24 34.9627 32.24 30.0002C32.24 25.0377 28.0412 21 22.88 21ZM22.88 38.2034C18.1758 38.2034 14.3485 34.5238 14.3485 30.0002C14.3485 25.4766 18.1758 21.7966 22.88 21.7966C27.5843 21.7966 31.4115 25.4766 31.4115 30.0002C31.4115 34.5238 27.5843 38.2034 22.88 38.2034Z" fill="white" stroke="white" stroke-width="0.5"/>
<g filter="url(#filter0_d_171_14)">
<path d="M58.768 16.456H62.848L66.616 27.544L66.064 27.304L69.352 19.12L70.96 23.896L65.872 34.816L58.768 16.456ZM67.624 16.456H71.08L75.424 27.184L74.8 27.088L78.04 16.456H81.784L74.968 34.768L67.624 16.456ZM86.5503 34.288C85.5743 34.288 84.6863 34.096 83.8863 33.712C83.1023 33.312 82.4783 32.704 82.0143 31.888C81.5503 31.072 81.3183 30.032 81.3183 28.768C81.3183 27.584 81.5583 26.56 82.0383 25.696C82.5183 24.832 83.1503 24.168 83.9342 23.704C84.7183 23.224 85.5503 22.984 86.4303 22.984C87.4703 22.984 88.2543 23.16 88.7823 23.512C89.3263 23.848 89.7743 24.224 90.1263 24.64L89.9823 25.048L90.2943 23.512H93.4143V34H90.0543V31.72L90.3183 32.44C90.2863 32.44 90.1903 32.536 90.0303 32.728C89.8703 32.904 89.6303 33.12 89.3103 33.376C89.0063 33.616 88.6223 33.824 88.1583 34C87.7103 34.192 87.1743 34.288 86.5503 34.288ZM87.5103 31.552C87.9103 31.552 88.2703 31.496 88.5903 31.384C88.9103 31.256 89.1903 31.08 89.4303 30.856C89.6703 30.616 89.8783 30.32 90.0543 29.968V27.4C89.9263 27.048 89.7343 26.752 89.4783 26.512C89.2223 26.256 88.9183 26.064 88.5663 25.936C88.2143 25.792 87.8223 25.72 87.3903 25.72C86.9103 25.72 86.4623 25.848 86.0463 26.104C85.6463 26.344 85.3263 26.68 85.0863 27.112C84.8463 27.544 84.7263 28.04 84.7263 28.6C84.7263 29.16 84.8543 29.664 85.1103 30.112C85.3663 30.56 85.7023 30.912 86.1183 31.168C86.5503 31.424 87.0143 31.552 87.5103 31.552ZM100.284 34.216C99.4204 34.216 98.6124 34.064 97.8604 33.76C97.1244 33.456 96.5004 33.032 95.9884 32.488L97.3804 30.64C97.8924 31.104 98.3644 31.44 98.7964 31.648C99.2444 31.84 99.6444 31.936 99.9964 31.936C100.268 31.936 100.508 31.912 100.716 31.864C100.94 31.8 101.116 31.712 101.244 31.6C101.372 31.472 101.436 31.312 101.436 31.12C101.436 30.848 101.324 30.632 101.1 30.472C100.892 30.312 100.62 30.184 100.284 30.088C99.9484 29.976 99.5884 29.864 99.2044 29.752C98.2444 29.448 97.5484 29.008 97.1164 28.432C96.7004 27.84 96.4924 27.2 96.4924 26.512C96.4924 25.984 96.6284 25.456 96.9004 24.928C97.1884 24.384 97.6364 23.936 98.2444 23.584C98.8684 23.216 99.6684 23.032 100.644 23.032C101.524 23.032 102.268 23.12 102.876 23.296C103.484 23.472 104.06 23.76 104.604 24.16L103.332 26.128C103.028 25.888 102.684 25.688 102.3 25.528C101.932 25.352 101.588 25.256 101.268 25.24C100.98 25.224 100.732 25.256 100.524 25.336C100.332 25.416 100.18 25.52 100.068 25.648C99.9564 25.776 99.9004 25.912 99.9004 26.056C99.8844 26.36 99.9964 26.6 100.236 26.776C100.492 26.952 100.812 27.088 101.196 27.184C101.58 27.28 101.956 27.392 102.324 27.52C102.836 27.68 103.276 27.896 103.644 28.168C104.012 28.44 104.292 28.768 104.484 29.152C104.692 29.52 104.796 29.968 104.796 30.496C104.796 31.136 104.628 31.744 104.292 32.32C103.972 32.88 103.476 33.336 102.804 33.688C102.148 34.04 101.308 34.216 100.284 34.216ZM107.611 34V15.064H110.899V25.624L110.875 25.216C111.243 24.56 111.763 24.032 112.435 23.632C113.107 23.216 113.931 23.008 114.907 23.008C115.899 23.008 116.723 23.304 117.379 23.896C118.051 24.472 118.395 25.224 118.411 26.152V34H115.051V27.4C115.035 26.936 114.907 26.568 114.667 26.296C114.443 26.008 114.059 25.864 113.515 25.864C113.003 25.864 112.555 26.032 112.171 26.368C111.787 26.704 111.491 27.16 111.283 27.736C111.075 28.312 110.971 28.976 110.971 29.728V34H107.611ZM127.021 34.288C125.741 34.288 124.653 34.048 123.757 33.568C122.877 33.088 122.205 32.424 121.741 31.576C121.277 30.728 121.045 29.752 121.045 28.648C121.045 27.592 121.317 26.64 121.861 25.792C122.405 24.944 123.133 24.272 124.045 23.776C124.957 23.264 125.973 23.008 127.093 23.008C128.597 23.008 129.829 23.448 130.789 24.328C131.765 25.192 132.397 26.448 132.685 28.096L124.525 30.688L123.781 28.864L129.685 26.872L128.989 27.184C128.861 26.768 128.629 26.408 128.293 26.104C127.973 25.784 127.485 25.624 126.829 25.624C126.333 25.624 125.893 25.744 125.509 25.984C125.141 26.208 124.853 26.536 124.645 26.968C124.453 27.384 124.357 27.88 124.357 28.456C124.357 29.112 124.477 29.664 124.717 30.112C124.957 30.544 125.285 30.872 125.701 31.096C126.117 31.32 126.581 31.432 127.093 31.432C127.461 31.432 127.813 31.368 128.149 31.24C128.501 31.112 128.845 30.944 129.181 30.736L130.669 33.232C130.109 33.552 129.501 33.808 128.845 34C128.205 34.192 127.597 34.288 127.021 34.288ZM138.15 23.512L138.462 26.392L138.39 25.96C138.694 25.336 139.11 24.808 139.638 24.376C140.166 23.928 140.686 23.584 141.198 23.344C141.726 23.104 142.126 22.984 142.398 22.984L142.23 26.344C141.446 26.248 140.774 26.376 140.214 26.728C139.654 27.08 139.222 27.544 138.918 28.12C138.614 28.696 138.462 29.288 138.462 29.896V34H135.126V23.512H138.15ZM162.759 20.608C162.087 20.24 161.399 19.936 160.695 19.696C160.007 19.456 159.359 19.336 158.751 19.336C157.999 19.336 157.407 19.488 156.975 19.792C156.543 20.096 156.327 20.552 156.327 21.16C156.327 21.576 156.487 21.952 156.807 22.288C157.143 22.608 157.567 22.896 158.079 23.152C158.607 23.408 159.151 23.64 159.711 23.848C160.223 24.04 160.727 24.272 161.223 24.544C161.735 24.8 162.191 25.128 162.591 25.528C162.991 25.912 163.311 26.4 163.551 26.992C163.791 27.568 163.911 28.28 163.911 29.128C163.911 30.024 163.679 30.856 163.215 31.624C162.751 32.392 162.071 33.016 161.175 33.496C160.279 33.96 159.175 34.192 157.863 34.192C157.191 34.192 156.503 34.128 155.799 34C155.111 33.856 154.431 33.648 153.759 33.376C153.087 33.088 152.439 32.728 151.815 32.296L153.351 29.584C153.767 29.888 154.215 30.16 154.695 30.4C155.191 30.624 155.687 30.8 156.183 30.928C156.679 31.056 157.135 31.12 157.551 31.12C157.967 31.12 158.383 31.064 158.799 30.952C159.231 30.824 159.583 30.616 159.855 30.328C160.143 30.04 160.287 29.64 160.287 29.128C160.287 28.776 160.167 28.456 159.927 28.168C159.703 27.88 159.391 27.616 158.991 27.376C158.607 27.136 158.183 26.928 157.719 26.752C157.175 26.544 156.615 26.304 156.039 26.032C155.463 25.76 154.919 25.432 154.407 25.048C153.911 24.648 153.503 24.16 153.183 23.584C152.879 22.992 152.727 22.272 152.727 21.424C152.727 20.4 152.951 19.512 153.399 18.76C153.863 18.008 154.511 17.416 155.343 16.984C156.175 16.536 157.135 16.288 158.223 16.24C159.647 16.24 160.799 16.408 161.679 16.744C162.575 17.08 163.375 17.48 164.079 17.944L162.759 20.608ZM171.927 34.288C170.647 34.288 169.559 34.048 168.663 33.568C167.783 33.088 167.111 32.424 166.647 31.576C166.183 30.728 165.951 29.752 165.951 28.648C165.951 27.592 166.223 26.64 166.767 25.792C167.311 24.944 168.039 24.272 168.951 23.776C169.863 23.264 170.879 23.008 171.999 23.008C173.503 23.008 174.735 23.448 175.695 24.328C176.671 25.192 177.303 26.448 177.591 28.096L169.431 30.688L168.687 28.864L174.591 26.872L173.895 27.184C173.767 26.768 173.535 26.408 173.199 26.104C172.879 25.784 172.391 25.624 171.735 25.624C171.239 25.624 170.799 25.744 170.415 25.984C170.047 26.208 169.759 26.536 169.551 26.968C169.359 27.384 169.263 27.88 169.263 28.456C169.263 29.112 169.383 29.664 169.623 30.112C169.863 30.544 170.191 30.872 170.607 31.096C171.023 31.32 171.487 31.432 171.999 31.432C172.367 31.432 172.719 31.368 173.055 31.24C173.407 31.112 173.751 30.944 174.087 30.736L175.575 33.232C175.015 33.552 174.407 33.808 173.751 34C173.111 34.192 172.503 34.288 171.927 34.288ZM183.057 23.512L183.369 26.392L183.297 25.96C183.601 25.336 184.017 24.808 184.545 24.376C185.073 23.928 185.593 23.584 186.105 23.344C186.633 23.104 187.033 22.984 187.305 22.984L187.137 26.344C186.353 26.248 185.681 26.376 185.121 26.728C184.561 27.08 184.129 27.544 183.825 28.12C183.521 28.696 183.369 29.288 183.369 29.896V34H180.033V23.512H183.057ZM194.676 34.216L188.388 23.512H192.372L195.948 30.76L193.884 30.688L196.98 23.512H200.724L194.772 34.216H194.676ZM202.697 23.512H206.057V34H202.697V23.512ZM202.625 19.792C202.625 19.296 202.817 18.888 203.201 18.568C203.601 18.248 204.025 18.088 204.473 18.088C204.921 18.088 205.329 18.248 205.697 18.568C206.081 18.888 206.273 19.296 206.273 19.792C206.273 20.288 206.081 20.696 205.697 21.016C205.329 21.32 204.921 21.472 204.473 21.472C204.025 21.472 203.601 21.32 203.201 21.016C202.817 20.696 202.625 20.288 202.625 19.792ZM218.421 33.064C217.957 33.432 217.373 33.728 216.669 33.952C215.981 34.176 215.301 34.288 214.629 34.288C213.429 34.288 212.381 34.072 211.485 33.64C210.605 33.192 209.917 32.56 209.421 31.744C208.941 30.912 208.701 29.912 208.701 28.744C208.701 27.576 208.965 26.584 209.493 25.768C210.021 24.936 210.709 24.304 211.557 23.872C212.421 23.44 213.325 23.224 214.269 23.224C215.213 23.224 216.029 23.352 216.717 23.608C217.421 23.864 218.021 24.2 218.517 24.616L216.885 26.776C216.661 26.6 216.349 26.424 215.949 26.248C215.565 26.056 215.109 25.96 214.581 25.96C214.117 25.96 213.693 26.08 213.309 26.32C212.925 26.56 212.621 26.888 212.397 27.304C212.173 27.72 212.061 28.2 212.061 28.744C212.061 29.256 212.181 29.728 212.421 30.16C212.661 30.592 212.989 30.936 213.405 31.192C213.837 31.432 214.341 31.552 214.917 31.552C215.285 31.552 215.621 31.504 215.925 31.408C216.245 31.296 216.517 31.144 216.741 30.952L218.421 33.064ZM226.161 34.288C224.881 34.288 223.793 34.048 222.897 33.568C222.017 33.088 221.345 32.424 220.881 31.576C220.417 30.728 220.185 29.752 220.185 28.648C220.185 27.592 220.457 26.64 221.001 25.792C221.545 24.944 222.273 24.272 223.185 23.776C224.097 23.264 225.113 23.008 226.233 23.008C227.737 23.008 228.969 23.448 229.929 24.328C230.905 25.192 231.537 26.448 231.825 28.096L223.665 30.688L222.921 28.864L228.825 26.872L228.129 27.184C228.001 26.768 227.769 26.408 227.433 26.104C227.113 25.784 226.625 25.624 225.969 25.624C225.473 25.624 225.033 25.744 224.649 25.984C224.281 26.208 223.993 26.536 223.785 26.968C223.593 27.384 223.497 27.88 223.497 28.456C223.497 29.112 223.617 29.664 223.857 30.112C224.097 30.544 224.425 30.872 224.841 31.096C225.257 31.32 225.721 31.432 226.233 31.432C226.601 31.432 226.953 31.368 227.289 31.24C227.641 31.112 227.985 30.944 228.321 30.736L229.809 33.232C229.249 33.552 228.641 33.808 227.985 34C227.345 34.192 226.737 34.288 226.161 34.288Z" fill="white"/>
</g>
<defs>
<filter id="filter0_d_171_14" x="58.7681" y="15.064" width="175.057" height="21.752" filterUnits="userSpaceOnUse" color-interpolation-filters="sRGB">
<feFlood flood-opacity="0" result="BackgroundImageFix"/>
<feColorMatrix in="SourceAlpha" type="matrix" values="0 0 0 0 0 0 0 0 0 0 0 0 0 0 0 0 0 0 127 0" result="hardAlpha"/>
<feOffset dx="2" dy="2"/>
<feComposite in2="hardAlpha" operator="out"/>
<feColorMatrix type="matrix" values="0 0 0 0 0 0 0 0 0 0 0 0 0 0 0 0 0 0 0.25 0"/>
<feBlend mode="normal" in2="BackgroundImageFix" result="effect1_dropShadow_171_14"/>
<feBlend mode="normal" in="SourceGraphic" in2="effect1_dropShadow_171_14" result="shape"/>
</filter>
</defs>
</svg>
